<svg width="6" height="7" viewBox="0 0 6 7" fill="none" xmlns="http://www.w3.org/2000/svg">
<g clip-path="url(#clip0)">
<path d="M0.537935 6.25036C0.468303 6.25036 0.398672 6.22388 0.345768 6.17057C0.239562 6.06437 0.239562 5.89218 0.345768 5.78598L5.08788 1.04389C5.19408 0.937682 5.36627 0.937682 5.47248 1.04389C5.57868 1.15009 5.57868 1.32228 5.47248 1.42855L0.730434 6.17057C0.677132 6.22354 0.6075 6.25036 0.537935 6.25036Z" fill="#9D9D9D"/>
<path d="M5.28038 6.25036C5.21074 6.25036 5.14118 6.22388 5.08821 6.17057L0.345768 1.42855C0.239562 1.32228 0.239562 1.15009 0.345768 1.04389C0.451974 0.937682 0.624161 0.937682 0.730434 1.04389L5.47248 5.78598C5.57868 5.89218 5.57868 6.06437 5.47248 6.17057C5.41917 6.22354 5.34961 6.25036 5.28038 6.25036Z" fill="#9D9D9D"/>
</g>
<defs>
<clipPath id="clip0">
<rect width="5.28611" height="5.28611" fill="white" transform="translate(0.263428 0.964233)"/>
</clipPath>
</defs>
</svg>
