<svg width="37" height="37" fill="none" xmlns="http://www.w3.org/2000/svg"><path d="M35.88 14.827l-2.598-.448a13.698 13.698 0 00-1.433-3.45l1.523-2.15c.403-.537.358-1.298-.135-1.746l-3.315-3.315c-.447-.493-1.209-.538-1.747-.134l-2.15 1.523c-1.075-.583-2.24-1.076-3.404-1.39l-.448-2.597C22.083.448 21.501 0 20.83 0h-4.658c-.672 0-1.255.448-1.344 1.12l-.448 2.598c-1.21.313-2.374.806-3.45 1.433L8.78 3.628c-.537-.403-1.298-.358-1.746.135L3.718 7.077c-.493.448-.538 1.21-.134 1.747l1.523 2.15c-.583 1.076-1.076 2.24-1.39 3.405l-2.597.448c-.672.09-1.12.672-1.12 1.344v4.658c0 .672.448 1.255 1.12 1.344l2.598.448c.313 1.21.806 2.374 1.433 3.45l-1.523 2.15c-.403.537-.358 1.298.135 1.746l3.314 3.315c.448.493 1.21.538 1.747.135l2.15-1.524c1.076.583 2.24 1.075 3.405 1.39l.448 2.597c.09.672.672 1.12 1.344 1.12h4.658c.672 0 1.255-.448 1.344-1.12l.448-2.598a13.698 13.698 0 003.45-1.433l2.15 1.523c.537.403 1.298.358 1.746-.135l3.315-3.315c.493-.447.538-1.209.135-1.747l-1.524-2.15c.583-1.075 1.075-2.24 1.39-3.404l2.597-.448c.672-.09 1.12-.672 1.12-1.344v-4.658c0-.672-.448-1.255-1.12-1.344zM18.5 25.89a7.398 7.398 0 01-7.391-7.391 7.398 7.398 0 017.391-7.391 7.398 7.398 0 017.391 7.391A7.398 7.398 0 0118.5 25.89z" fill="#304BAB"/></svg>