<svg width="51" height="51" viewBox="0 0 51 51" fill="none" xmlns="http://www.w3.org/2000/svg"><path d="M33.469 3.188h-3.462A4.787 4.787 0 0025.5 0a4.794 4.794 0 00-4.51 3.188h-3.46c-.88 0-1.593.713-1.593 1.593v6.375c0 .88.713 1.594 1.593 1.594h15.94c.88 0 1.593-.714 1.593-1.594V4.781c0-.88-.713-1.593-1.593-1.593z" fill="#304BAB"/><path d="M41.438 6.375H38.25v4.781a4.787 4.787 0 01-4.781 4.781H17.53a4.787 4.787 0 01-4.781-4.78V6.374H9.562a3.193 3.193 0 00-3.187 3.188v38.25C6.375 49.6 7.775 51 9.563 51h31.874c1.789 0 3.188-1.4 3.188-3.188V9.563c0-1.788-1.4-3.187-3.188-3.187zM25.035 34.597l-6.375 6.375a1.6 1.6 0 01-2.257 0l-3.188-3.187a1.595 1.595 0 012.254-2.254l2.062 2.06 5.247-5.247a1.595 1.595 0 012.257 2.253zm0-12.75l-6.375 6.375a1.6 1.6 0 01-2.257 0l-3.188-3.187a1.595 1.595 0 012.254-2.254l2.062 2.06 5.247-5.247a1.595 1.595 0 012.257 2.253zM36.656 38.25h-6.375a1.594 1.594 0 010-3.188h6.375a1.594 1.594 0 010 3.188zm0-12.75h-6.375a1.594 1.594 0 010-3.188h6.375a1.594 1.594 0 010 3.188z" fill="#304BAB"/></svg>