<svg width="26" height="34" fill="none" xmlns="http://www.w3.org/2000/svg"><path d="M17.625 10.255c-1.206 0-2.188-1.006-2.188-2.243V.641H4.25C2.355.64.812 2.222.812 4.166v25.767c0 1.944 1.543 3.525 3.438 3.525h17.5c1.895 0 3.438-1.581 3.438-3.525V10.255h-7.563zM5.937 23.715h4.545a.95.95 0 01.938.962.95.95 0 01-.938.962H5.939A.95.95 0 015 24.677c0-.53.42-.961.938-.961zM5 19.55a.95.95 0 01.938-.961h13.75a.95.95 0 01.937.961.95.95 0 01-.938.962H5.938A.95.95 0 015 19.549zm14.688-6.089a.95.95 0 01.937.962.95.95 0 01-.938.961H5.938A.95.95 0 015 14.422a.95.95 0 01.938-.962h13.75z" fill="#304BAB"/><path d="M17.313 8.011c0 .177.14.32.312.32h7.145a3.508 3.508 0 00-.658-.88l-6.026-5.846a3.45 3.45 0 00-.773-.566v6.972z" fill="#304BAB"/></svg>