<svg width="22" height="22" fill="none" xmlns="http://www.w3.org/2000/svg"><g clip-path="url(#clip0)"><path d="M21.401 16.146l-3.07-3.07c-1.097-1.097-2.96-.658-3.4.767-.328.987-1.425 1.535-2.411 1.316-2.194-.548-5.154-3.4-5.702-5.702-.33-.987.329-2.083 1.316-2.412 1.425-.439 1.864-2.303.767-3.4L5.831.576c-.877-.767-2.193-.767-2.96 0L.786 2.66c-2.083 2.193.22 8.004 5.373 13.158 5.153 5.153 10.965 7.566 13.158 5.373l2.083-2.084c.768-.877.768-2.193 0-2.96z" fill="#304BAB"/></g><defs><clipPath id="clip0"><path fill="#fff" d="M0 0h22v22H0z"/></clipPath></defs></svg>