<svg width="43" height="36" fill="none" xmlns="http://www.w3.org/2000/svg"><path d="M20.893 27.043l-1.67 6.438 4.961-5.072-.674-.268-2.617-1.098z" fill="#304BAB"/><path d="M23.59 23.496a.791.791 0 01-1.208-1.023L41.377.07 3.085 15.521.128 16.745l12.143 4.916L31.6 7.269a.791.791 0 11.946 1.266L13.315 22.86l3.69 12.889 2.57-9.93h.02a.768.768 0 01.033-.167.791.791 0 011.036-.423l5.18 2.169 10.792 4.243a.748.748 0 00.667-.03.791.791 0 00.396-.576l2.596-17.346L42.872.753 23.59 23.496z" fill="#304BAB"/></svg>