<svg width="18" height="18" fill="none" xmlns="http://www.w3.org/2000/svg"><path d="M9 8.803c2.002 0 3.624-1.97 3.624-4.401S12.091 0 9 0C5.91 0 5.376 1.97 5.376 4.402 5.376 6.832 7 8.803 9 8.803zm-6.845 6.72c0-.147 0-.04 0 0zm13.69.117c.001-.041 0-.282 0 0zm-.008-.294c-.067-4.234-.62-5.441-4.852-6.205 0 0-.596.76-1.985.76-1.388 0-1.984-.76-1.984-.76-4.186.756-4.773 1.944-4.85 6.068-.006.337-.01.354-.01.315v.445S3.164 18 9 18c5.837 0 6.844-2.031 6.844-2.031v-.33c0 .025-.003-.022-.007-.293z" fill="#000"/></svg>