<svg width="46" height="26" fill="none" xmlns="http://www.w3.org/2000/svg"><path d="M38.336 12.479c2.552 0 4.62-1.79 4.62-3.998s-2.068-3.998-4.62-3.998-4.62 1.79-4.62 3.998 2.068 3.998 4.62 3.998zm-30.708 0c2.552 0 4.62-1.79 4.62-3.998s-2.068-3.998-4.62-3.998-4.62 1.79-4.62 3.998 2.068 3.998 4.62 3.998zm15.378-.451c3.606 0 6.528-2.53 6.528-5.649 0-3.12-2.922-5.648-6.528-5.648-3.605 0-6.528 2.529-6.528 5.648 0 3.12 2.923 5.649 6.528 5.649zm-9.499 4.565a5.124 5.124 0 00-2.844-.838H4.665C2.089 15.755 0 17.562 0 19.79v1.503c0 .255.238.46.532.46h9.629c.255-2.096 1.512-3.938 3.346-5.16zm13.706.92H18.8c-3.214 0-5.82 2.255-5.82 5.036v1.931c0 .327.306.592.684.592H32.35c.378 0 .684-.265.684-.592v-1.93c0-2.782-2.606-5.036-5.82-5.036zm14.122-1.82h-5.998a5.117 5.117 0 00-2.863.879c1.833 1.21 3.095 3.038 3.37 5.12h9.66c.274 0 .496-.192.496-.429V19.73c0-2.23-2.089-4.037-4.665-4.037z" fill="#304BAB"/></svg>