<svg width="23" height="23" fill="none" xmlns="http://www.w3.org/2000/svg"><path d="M11.5 0C5.159 0 0 5.159 0 11.5S5.159 23 11.5 23c2.022 0 4.01-.532 5.751-1.54l-1.439-2.488a8.621 8.621 0 01-4.312 1.153c-4.756 0-8.625-3.869-8.625-8.625S6.744 2.875 11.5 2.875s8.625 3.869 8.625 8.625v1.252c0 .94-.604 1.623-1.438 1.623a1.44 1.44 0 01-1.437-1.438v-5.75h-1.987C14.252 6.304 12.945 5.75 11.5 5.75c-3.17 0-5.75 2.58-5.75 5.75s2.58 5.75 5.75 5.75c1.51 0 2.875-.597 3.902-1.552.792.94 1.963 1.552 3.286 1.552 2.418 0 4.312-1.976 4.312-4.498V11.5C23 5.159 17.841 0 11.5 0zm0 14.375A2.878 2.878 0 018.625 11.5 2.878 2.878 0 0111.5 8.625a2.878 2.878 0 012.875 2.875 2.878 2.878 0 01-2.875 2.875z" fill="#304BAB"/></svg>