<svg width="15" height="15" viewBox="0 0 15 15" fill="none" xmlns="http://www.w3.org/2000/svg"><path d="M13.554 2.03H1.446C.648 2.03 0 2.678 0 3.477v8.047c0 .798.648 1.446 1.446 1.446h12.108c.798 0 1.446-.648 1.446-1.446V3.477c0-.799-.648-1.447-1.446-1.447zM1.442 9.35c0-.017.004-.033.004-.049.023-.704.53-1.28 1.324-1.592a1.89 1.89 0 01.387-2.787 1.887 1.887 0 012.132 0 1.896 1.896 0 01.387 2.787c.763.3 1.263.84 1.322 1.507a1.047 1.047 0 01-.287.863 1.047 1.047 0 01-.756.323H2.492a1.049 1.049 0 01-1.046-1.007c0-.015-.004-.03-.004-.045zm12.112.444a.64.64 0 01-.638.599H9.059a.642.642 0 01-.55-.316.639.639 0 01.55-.97h3.857a.64.64 0 01.638.599c0 .015.004.029.004.044 0 .015-.003.029-.004.044zm0-2.25a.64.64 0 01-.638.599H9.059a.643.643 0 010-1.286h3.857a.64.64 0 01.638.6c0 .014.004.028.004.042 0 .016-.003.03-.004.045zm0-2.25a.64.64 0 01-.638.599H9.059a.643.643 0 010-1.286h3.857a.64.64 0 01.638.6c0 .014.004.028.004.043 0 .015-.003.03-.004.044z" fill="#304BAB"/></svg>