<svg width="49" height="30" fill="none" xmlns="http://www.w3.org/2000/svg"><path d="M40.803 26.758l-2.356-9.234a1.005 1.005 0 00-.543-.658 1.041 1.041 0 00-.864-.014 161.912 161.912 0 01-8.25 3.342 1.01 1.01 0 00-.623.676.984.984 0 00.198.89l6.576 7.872a1.034 1.034 0 001.245.262l4.084-2a.993.993 0 00.533-1.136zM30.617 6.876a1.002 1.002 0 00-.718-.834l-20.417-6a1.044 1.044 0 00-1.016.25l-4.084 4A.988.988 0 004.6 5.868l14.291 8a1.039 1.039 0 001.031-.01l10.208-6a.995.995 0 00.488-.982z" fill="#304BAB"/><path d="M48.055 3.985c-.027.002-.05.016-.076.016-3.646 0-7.521 2.776-7.558 2.804a1.038 1.038 0 01-1.429-.21.985.985 0 01.212-1.398c.135-.098 2.579-1.854 5.623-2.72C43.565 2.185 41.934 2 39.813 2 34.04 2 27.414 4.967 27.136 5.093a.996.996 0 00-.5 1.328c.017.034.047.056.066.088l-8.484 4.983a1.023 1.023 0 00-1.32-.385l-1.57.768 3.562 1.993c.317.176.723.172 1.031-.01l10.208-6a1.032 1.032 0 011.401.343.99.99 0 01-.35 1.372l-10.207 6a3.104 3.104 0 01-1.576.427 3.108 3.108 0 01-1.52-.396l-4.742-2.653-1.905.931-7.71-3.775a1.04 1.04 0 00-1.18.186l-2.04 2a.987.987 0 00-.13 1.261l3.461 5.084C.001 20.626.001 21.61.001 22c0 1.802 2.615 2 8.167 2C13.602 24 49 12.29 49 6c0-.501-.165-1.277-.945-2.015z" fill="#304BAB"/></svg>