<?xml version="1.0" encoding="utf-8"?><svg width="37" height="39" xmlns="http://www.w3.org/2000/svg" viewBox="0 0 37 39"><g clip-path="url(#bclip0)"><path d="M21.102.396s1.284 4.714 1.284 8.539c0 3.664-2.342 6.644-5.924 6.644-3.582 0-6.288-2.97-6.288-6.644l.043-.64c-3.487 4.278-5.594 9.792-5.594 15.814 0 7.863 6.21 14.232 13.877 14.232 7.667 0 13.877-6.369 13.877-14.232 0-9.597-4.501-18.154-11.275-23.713zm-3.105 32.608a5.59 5.59 0 01-5.594-5.586c0-2.89 1.812-4.919 4.883-5.55 3.07-.632 6.244-2.144 8.005-4.581a25.4 25.4 0 011.032 7.178c0 4.705-3.73 8.539-8.326 8.539z"/></g><defs><clipPath id="bclip0"><path d="M0 0h37v37.9H0z"/></clipPath></defs></svg>