<?xml version="1.0" encoding="utf-8"?><svg width="35" height="35" xmlns="http://www.w3.org/2000/svg" viewBox="0 0 35 35"><path d="M31.66 14.258h-.496v-.505C31.164 6.17 24.994 0 17.411 0 9.827 0 3.658 6.17 3.658 13.753v.505h-.496A3.166 3.166 0 000 17.42v4.625a3.166 3.166 0 003.162 3.162h1.763a.814.814 0 00.747-.493c2.088 4.155 5.125 6.902 5.326 7.08a.576.576 0 00.384.146h.002a.576.576 0 00.535-.79c-.014-.053-.04-.147-.073-.277 1.42 1.784 2.944 2.838 4.101 3.443a6.034 6.034 0 002.787.684c.968 0 1.932-.236 2.787-.684 1.105-.578 2.544-1.568 3.908-3.208a8.05 8.05 0 005.113-5.901h1.118a3.166 3.166 0 003.162-3.162V17.42a3.166 3.166 0 00-3.162-3.162zM6.279 8.95C8.143 4.647 12.43 1.627 17.41 1.627c5.49 0 10.137 3.67 11.625 8.684-.649-.625-1.358-.982-1.983-1.11-.442-1.26-1.094-2.043-1.238-2.205-.272-.367-2.81-3.577-8.007-3.577-1.78 0-3.683.386-5.654 1.148-1.407.543-3.947 1.813-5.875 4.384zm14.708 24.344a4.878 4.878 0 01-4.505 0c-1.417-.74-3.441-2.227-5.04-5.095-.032-.056-.062-.115-.093-.172-.213-2.197-.06-4.98 1.684-6.445 1.351-1.134 3.625-1.662 5.824-2.173 2.753-.64 5.584-1.298 7.143-3.162.49.46.904 1.044 1.067 1.773.56 2.489-.158 4.622-.168 4.652a.577.577 0 00.855.675c-.362 1.688-.908 3.383-1.727 4.853-.245.438-.5.841-.761 1.218a6.35 6.35 0 01-2.575.543h-.842a2.338 2.338 0 00-2.188-1.523h-2.224a2.339 2.339 0 00-2.337 2.337 2.339 2.339 0 002.337 2.336h2.224a2.338 2.338 0 002.188-1.523h.842c.248 0 .494-.011.736-.033-.879.816-1.735 1.37-2.44 1.74zm6.583-5.602c.735-1.616 1.21-3.385 1.513-5.094v.97c0 1.571-.57 3.01-1.513 4.124z"/></svg>