<?xml version="1.0" encoding="utf-8"?><svg viewBox="0 0 51 51" xmlns="http://www.w3.org/2000/svg" xmlns:xlink="http://www.w3.org/1999/xlink"><style>:root>svg{display:none}:root>svg:target{display:block}</style><svg viewBox="0 0 37 37" id="contracts__icon-1" xmlns="http://www.w3.org/2000/svg"><path d="M35.88 14.827l-2.598-.448a13.698 13.698 0 00-1.433-3.45l1.523-2.15c.403-.537.358-1.298-.135-1.746l-3.315-3.315c-.447-.493-1.209-.538-1.747-.134l-2.15 1.523c-1.075-.583-2.24-1.076-3.404-1.39l-.448-2.597C22.083.448 21.501 0 20.83 0h-4.658c-.672 0-1.255.448-1.344 1.12l-.448 2.598c-1.21.313-2.374.806-3.45 1.433L8.78 3.628c-.537-.403-1.298-.358-1.746.135L3.718 7.077c-.493.448-.538 1.21-.134 1.747l1.523 2.15c-.583 1.076-1.076 2.24-1.39 3.405l-2.597.448c-.672.09-1.12.672-1.12 1.344v4.658c0 .672.448 1.255 1.12 1.344l2.598.448c.313 1.21.806 2.374 1.433 3.45l-1.523 2.15c-.403.537-.358 1.298.135 1.746l3.314 3.315c.448.493 1.21.538 1.747.135l2.15-1.524c1.076.583 2.24 1.075 3.405 1.39l.448 2.597c.09.672.672 1.12 1.344 1.12h4.658c.672 0 1.255-.448 1.344-1.12l.448-2.598a13.698 13.698 0 003.45-1.433l2.15 1.523c.537.403 1.298.358 1.746-.135l3.315-3.315c.493-.447.538-1.209.135-1.747l-1.524-2.15c.583-1.075 1.075-2.24 1.39-3.404l2.597-.448c.672-.09 1.12-.672 1.12-1.344v-4.658c0-.672-.448-1.255-1.12-1.344zM18.5 25.89a7.398 7.398 0 01-7.391-7.391 7.398 7.398 0 017.391-7.391 7.398 7.398 0 017.391 7.391 7.398 7.398 0 01-7.391 7.391z"/></svg><svg viewBox="0 0 37 39" id="contracts__icon-2" xmlns="http://www.w3.org/2000/svg"><g clip-path="url(#bclip0)"><path d="M21.102.396s1.284 4.714 1.284 8.539c0 3.664-2.342 6.644-5.924 6.644-3.582 0-6.288-2.97-6.288-6.644l.043-.64c-3.487 4.278-5.594 9.792-5.594 15.814 0 7.863 6.21 14.232 13.877 14.232 7.667 0 13.877-6.369 13.877-14.232 0-9.597-4.501-18.154-11.275-23.713zm-3.105 32.608a5.59 5.59 0 01-5.594-5.586c0-2.89 1.812-4.919 4.883-5.55 3.07-.632 6.244-2.144 8.005-4.581a25.4 25.4 0 011.032 7.178c0 4.705-3.73 8.539-8.326 8.539z"/></g><defs><clipPath id="bclip0"><path d="M0 0h37v37.9H0z"/></clipPath></defs></svg><svg viewBox="0 0 39 40" id="contracts__icon-3" xmlns="http://www.w3.org/2000/svg"><g clip-path="url(#cclip0)"><path d="M19.5.003L3.545 7.275v10.909C3.545 28.283 10.344 37.7 19.5 40c9.156-2.3 15.955-11.717 15.955-21.816V7.275L19.5.004zm0 36.225V20.002H7.09V9.639L19.5 3.985v15.998h12.41c-.94 7.49-5.807 14.163-12.41 16.245z"/></g><defs><clipPath id="cclip0"><path d="M0 0h39v40H0z"/></clipPath></defs></svg><svg viewBox="0 0 26 34" id="contracts__icon-4" xmlns="http://www.w3.org/2000/svg"><path d="M17.625 10.255c-1.206 0-2.188-1.006-2.188-2.243V.641H4.25C2.355.64.812 2.222.812 4.166v25.767c0 1.944 1.543 3.525 3.438 3.525h17.5c1.895 0 3.438-1.581 3.438-3.525V10.255h-7.563zM5.937 23.715h4.545a.95.95 0 01.938.962.95.95 0 01-.938.962H5.939A.95.95 0 015 24.677c0-.53.42-.961.938-.961zM5 19.55a.95.95 0 01.938-.961h13.75a.95.95 0 01.937.961.95.95 0 01-.938.962H5.938A.95.95 0 015 19.549zm14.688-6.089a.95.95 0 01.937.962.95.95 0 01-.938.961H5.938A.95.95 0 015 14.422a.95.95 0 01.938-.962h13.75z"/><path d="M17.313 8.011c0 .177.14.32.312.32h7.145a3.508 3.508 0 00-.658-.88l-6.026-5.846a3.45 3.45 0 00-.773-.566v6.972z"/></svg><svg viewBox="0 0 51 51" id="contracts__icon-5" xmlns="http://www.w3.org/2000/svg"><path d="M33.469 3.188h-3.462A4.787 4.787 0 0025.5 0a4.794 4.794 0 00-4.51 3.188H17.53c-.88 0-1.593.713-1.593 1.593v6.375c0 .88.713 1.594 1.593 1.594H33.47c.88 0 1.593-.714 1.593-1.594V4.781c0-.88-.713-1.593-1.593-1.593z"/><path d="M41.438 6.375H38.25v4.781a4.787 4.787 0 01-4.781 4.781H17.53a4.787 4.787 0 01-4.781-4.78V6.374H9.562a3.193 3.193 0 00-3.187 3.188v38.25C6.375 49.6 7.775 51 9.563 51h31.874c1.789 0 3.188-1.4 3.188-3.188V9.563c0-1.788-1.4-3.187-3.188-3.187zM25.035 34.597l-6.375 6.375a1.6 1.6 0 01-2.257 0l-3.188-3.187a1.595 1.595 0 012.254-2.254l2.062 2.06 5.247-5.247a1.595 1.595 0 012.257 2.253zm0-12.75l-6.375 6.375a1.6 1.6 0 01-2.257 0l-3.188-3.187a1.595 1.595 0 012.254-2.254l2.062 2.06 5.247-5.247a1.595 1.595 0 012.257 2.253zM36.656 38.25h-6.375a1.594 1.594 0 010-3.188h6.375a1.594 1.594 0 010 3.188zm0-12.75h-6.375a1.594 1.594 0 010-3.188h6.375a1.594 1.594 0 010 3.188z"/></svg><svg viewBox="0 0 35 35" id="contracts__icon-6" xmlns="http://www.w3.org/2000/svg"><path d="M31.66 14.258h-.496v-.505C31.164 6.17 24.994 0 17.411 0 9.827 0 3.658 6.17 3.658 13.753v.505h-.496A3.166 3.166 0 000 17.42v4.625a3.166 3.166 0 003.162 3.162h1.763a.814.814 0 00.747-.493c2.088 4.155 5.125 6.902 5.326 7.08a.576.576 0 00.384.146h.002a.576.576 0 00.535-.79c-.014-.053-.04-.147-.073-.277 1.42 1.784 2.944 2.838 4.101 3.443a6.034 6.034 0 002.787.684c.968 0 1.932-.236 2.787-.684 1.105-.578 2.544-1.568 3.908-3.208a8.05 8.05 0 005.113-5.901h1.118a3.166 3.166 0 003.162-3.162V17.42a3.166 3.166 0 00-3.162-3.162zM6.279 8.95C8.143 4.647 12.43 1.627 17.41 1.627c5.49 0 10.137 3.67 11.625 8.684-.649-.625-1.358-.982-1.983-1.11-.442-1.26-1.094-2.043-1.238-2.205-.272-.367-2.81-3.577-8.007-3.577-1.78 0-3.683.386-5.654 1.148-1.407.543-3.947 1.813-5.875 4.384zm14.708 24.344a4.878 4.878 0 01-4.505 0c-1.417-.74-3.441-2.227-5.04-5.095-.032-.056-.062-.115-.093-.172-.213-2.197-.06-4.98 1.684-6.445 1.351-1.134 3.625-1.662 5.824-2.173 2.753-.64 5.584-1.298 7.143-3.162.49.46.904 1.044 1.067 1.773.56 2.489-.158 4.622-.168 4.652a.577.577 0 00.855.675c-.362 1.688-.908 3.383-1.727 4.853-.245.438-.5.841-.761 1.218a6.35 6.35 0 01-2.575.543h-.842a2.338 2.338 0 00-2.188-1.523h-2.224a2.339 2.339 0 00-2.337 2.337 2.339 2.339 0 002.337 2.336h2.224a2.338 2.338 0 002.188-1.523h.842c.248 0 .494-.011.736-.033-.879.816-1.735 1.37-2.44 1.74zm6.583-5.602c.735-1.616 1.21-3.385 1.513-5.094v.97c0 1.571-.57 3.01-1.513 4.124z"/></svg><svg viewBox="0 0 29 29" id="example" xmlns="http://www.w3.org/2000/svg"><path d="M28.24 22.372l-5.87-3.915a1.713 1.713 0 00-2.294.373l-1.71 2.199a.73.73 0 01-.937.197l-.325-.18c-1.079-.587-2.42-1.319-5.123-4.023-2.703-2.704-3.436-4.046-4.024-5.122l-.178-.326a.732.732 0 01.193-.94l2.197-1.71c.703-.55.865-1.548.373-2.293L6.628.762A1.704 1.704 0 004.33.245L1.876 1.719A3.462 3.462 0 00.297 3.77c-.884 3.22-.219 8.778 7.969 16.966C14.779 27.247 19.627 29 22.96 29a8.56 8.56 0 002.271-.297 3.46 3.46 0 002.05-1.579l1.475-2.453a1.704 1.704 0 00-.517-2.298zm-.317 1.802l-1.472 2.455a2.497 2.497 0 01-1.474 1.142c-2.973.817-8.167.14-16.028-7.72C1.09 12.191.413 6.997 1.23 4.024a2.501 2.501 0 011.144-1.476l2.455-1.472a.74.74 0 01.997.224L7.95 4.492 9.736 7.17a.744.744 0 01-.162.996L7.377 9.874a1.691 1.691 0 00-.448 2.17l.175.318c.617 1.132 1.385 2.542 4.189 5.344 2.803 2.803 4.212 3.571 5.344 4.189l.317.175c.735.412 1.66.22 2.171-.448l1.71-2.198a.744.744 0 01.995-.16l5.87 3.914c.329.218.428.658.223.996zM16.433 4.836a8.225 8.225 0 018.215 8.215.483.483 0 10.967 0 9.192 9.192 0 00-9.182-9.182.483.483 0 100 .967z"/><path d="M16.433 7.735a5.322 5.322 0 015.316 5.316.483.483 0 00.966 0 6.29 6.29 0 00-6.282-6.282.483.483 0 100 .966z"/><path d="M16.433 10.635a2.42 2.42 0 012.416 2.416.483.483 0 10.967 0 3.387 3.387 0 00-3.383-3.383.483.483 0 100 .967z"/></svg><svg viewBox="0 0 16 16" id="icon__at" xmlns="http://www.w3.org/2000/svg"><path d="M8 0C3.589 0 0 3.589 0 8s3.589 8 8 8c1.407 0 2.79-.37 4.001-1.07L11 13.197A5.997 5.997 0 018 14c-3.309 0-6-2.691-6-6s2.691-6 6-6 6 2.691 6 6v.871C14 9.525 13.58 10 13 10c-.551 0-1-.449-1-1V5h-1.382A3.966 3.966 0 008 4C5.794 4 4 5.794 4 8s1.794 4 4 4c1.05 0 2-.415 2.714-1.08A2.981 2.981 0 0013 12c1.682 0 3-1.374 3-3.129V8c0-4.411-3.589-8-8-8zm0 10c-1.103 0-2-.897-2-2s.897-2 2-2 2 .897 2 2-.897 2-2 2z"/></svg><svg viewBox="0 0 33 39" id="icon__calc-circle" xmlns="http://www.w3.org/2000/svg"><path d="M31.635 5.758c0-3.603-7.206-4.786-11.561-4.786C9.48.972.715 9.038.715 19.739c0 11.507 8.443 18.874 19.305 18.874 2.904 0 11.991-.968 11.991-4.893 0-1.613-1.237-2.796-2.796-2.796-1.99 0-4.033 2.097-9.195 2.097-7.206 0-13.013-5.324-13.013-13.282 0-7.421 5.915-13.282 12.959-13.282 5.377 0 6.775 2.097 8.98 2.097 1.506 0 2.689-1.183 2.689-2.796z"/></svg><svg viewBox="0 0 20 20" id="icon__close" xmlns="http://www.w3.org/2000/svg"><g opacity=".5" clip-path="url(#jclip0)"><path d="M11.105 10.001l8.666-8.666A.781.781 0 1018.666.23L10 8.896 1.333.23A.781.781 0 10.23 1.335L8.895 10 .229 18.667a.781.781 0 101.105 1.105L10 11.106l8.666 8.666a.779.779 0 001.105 0 .781.781 0 000-1.105l-8.666-8.666z"/></g><defs><clipPath id="jclip0"><path d="M0 0h20v20H0z"/></clipPath></defs></svg><svg viewBox="0 0 6 7" id="icon__cross" xmlns="http://www.w3.org/2000/svg"><g clip-path="url(#kclip0)"><path d="M.538 6.25a.272.272 0 01-.192-.464l4.742-4.742a.272.272 0 11.384.385L.73 6.17a.273.273 0 01-.192.08z"/><path d="M5.28 6.25a.27.27 0 01-.192-.08L.346 1.43a.272.272 0 01.384-.385l4.742 4.742a.272.272 0 01-.192.464z"/></g><defs><clipPath id="kclip0"><path transform="translate(.263 .964)" d="M0 0h5.286v5.286H0z"/></clipPath></defs></svg><svg viewBox="0 0 23 23" id="icon__email" xmlns="http://www.w3.org/2000/svg"><path d="M11.5 0C5.159 0 0 5.159 0 11.5S5.159 23 11.5 23c2.022 0 4.01-.532 5.751-1.54l-1.439-2.488a8.621 8.621 0 01-4.312 1.153c-4.756 0-8.625-3.869-8.625-8.625S6.744 2.875 11.5 2.875s8.625 3.869 8.625 8.625v1.252c0 .94-.604 1.623-1.438 1.623a1.44 1.44 0 01-1.437-1.438v-5.75h-1.987C14.252 6.304 12.945 5.75 11.5 5.75c-3.17 0-5.75 2.58-5.75 5.75s2.58 5.75 5.75 5.75c1.51 0 2.875-.597 3.902-1.552.792.94 1.963 1.552 3.286 1.552 2.418 0 4.312-1.976 4.312-4.498V11.5C23 5.159 17.841 0 11.5 0zm0 14.375A2.878 2.878 0 018.625 11.5 2.878 2.878 0 0111.5 8.625a2.878 2.878 0 012.875 2.875 2.878 2.878 0 01-2.875 2.875z"/></svg><svg viewBox="0 0 15 15" id="icon__identity-card" xmlns="http://www.w3.org/2000/svg"><path d="M13.554 2.03H1.446C.648 2.03 0 2.678 0 3.477v8.047c0 .798.648 1.446 1.446 1.446h12.108c.798 0 1.446-.648 1.446-1.446V3.477c0-.799-.648-1.447-1.446-1.447zM1.442 9.35c0-.017.004-.033.004-.049.023-.704.53-1.28 1.324-1.592a1.89 1.89 0 01.387-2.787 1.887 1.887 0 012.132 0 1.896 1.896 0 01.387 2.787c.763.3 1.263.84 1.322 1.507a1.047 1.047 0 01-.287.863 1.047 1.047 0 01-.756.323H2.492a1.049 1.049 0 01-1.046-1.007c0-.015-.004-.03-.004-.045zm12.112.444a.64.64 0 01-.638.599H9.059a.642.642 0 01-.55-.316.639.639 0 01.55-.97h3.857a.64.64 0 01.638.599c0 .015.004.029.004.044 0 .015-.003.029-.004.044zm0-2.25a.64.64 0 01-.638.599H9.059a.643.643 0 010-1.286h3.857a.64.64 0 01.638.6c0 .014.004.028.004.042 0 .016-.003.03-.004.045zm0-2.25a.64.64 0 01-.638.599H9.059a.643.643 0 010-1.286h3.857a.64.64 0 01.638.6c0 .014.004.028.004.043 0 .015-.003.03-.004.044z"/></svg><svg viewBox="0 0 46 26" id="icon__people" xmlns="http://www.w3.org/2000/svg"><path d="M38.336 12.479c2.552 0 4.62-1.79 4.62-3.998s-2.068-3.998-4.62-3.998-4.62 1.79-4.62 3.998 2.068 3.998 4.62 3.998zm-30.708 0c2.552 0 4.62-1.79 4.62-3.998s-2.068-3.998-4.62-3.998-4.62 1.79-4.62 3.998 2.068 3.998 4.62 3.998zm15.378-.451c3.606 0 6.528-2.53 6.528-5.649 0-3.12-2.922-5.648-6.528-5.648-3.605 0-6.528 2.529-6.528 5.648 0 3.12 2.923 5.649 6.528 5.649zm-9.499 4.565a5.124 5.124 0 00-2.844-.838H4.665C2.089 15.755 0 17.562 0 19.79v1.503c0 .255.238.46.532.46h9.629c.255-2.096 1.512-3.938 3.346-5.16zm13.706.92H18.8c-3.214 0-5.82 2.255-5.82 5.036v1.931c0 .327.306.592.684.592h18.686c.378 0 .684-.265.684-.592v-1.93c0-2.782-2.606-5.036-5.82-5.036zm14.122-1.82h-5.998a5.117 5.117 0 00-2.863.879c1.833 1.21 3.095 3.038 3.37 5.12h9.66c.274 0 .496-.192.496-.429V19.73c0-2.23-2.089-4.037-4.665-4.037z"/></svg><svg viewBox="0 0 22 22" id="icon__phone" xmlns="http://www.w3.org/2000/svg"><g clip-path="url(#oclip0)"><path d="M21.401 16.146l-3.07-3.07c-1.097-1.097-2.96-.658-3.4.767-.328.987-1.425 1.535-2.411 1.316-2.194-.548-5.154-3.4-5.702-5.702-.33-.987.329-2.083 1.316-2.412 1.425-.439 1.864-2.303.767-3.4L5.831.576c-.877-.767-2.193-.767-2.96 0L.786 2.66c-2.083 2.193.22 8.004 5.373 13.158 5.153 5.153 10.965 7.566 13.158 5.373l2.083-2.084c.768-.877.768-2.193 0-2.96z"/></g><defs><clipPath id="oclip0"><path d="M0 0h22v22H0z"/></clipPath></defs></svg><svg viewBox="0 0 49 30" id="icon__plane" xmlns="http://www.w3.org/2000/svg"><path d="M40.803 26.758l-2.356-9.234a1.005 1.005 0 00-.543-.658 1.041 1.041 0 00-.864-.014 161.912 161.912 0 01-8.25 3.342 1.01 1.01 0 00-.623.676.984.984 0 00.198.89l6.576 7.872a1.034 1.034 0 001.245.262l4.084-2a.993.993 0 00.533-1.136zM30.617 6.876a1.002 1.002 0 00-.718-.834l-20.417-6a1.044 1.044 0 00-1.016.25l-4.084 4A.988.988 0 004.6 5.868l14.291 8a1.039 1.039 0 001.031-.01l10.208-6a.995.995 0 00.488-.982z"/><path d="M48.055 3.985c-.027.002-.05.016-.076.016-3.646 0-7.521 2.776-7.558 2.804a1.038 1.038 0 01-1.429-.21.985.985 0 01.212-1.398c.135-.098 2.579-1.854 5.623-2.72C43.565 2.185 41.934 2 39.813 2 34.04 2 27.414 4.967 27.136 5.093a.996.996 0 00-.5 1.328c.017.034.047.056.066.088l-8.484 4.983a1.023 1.023 0 00-1.32-.385l-1.57.768 3.562 1.993c.317.176.723.172 1.031-.01l10.208-6a1.032 1.032 0 011.401.343.99.99 0 01-.35 1.372l-10.207 6c-.474.28-1.021.427-1.576.427-.531 0-1.058-.136-1.52-.396l-4.742-2.653-1.905.931-7.71-3.775a1.04 1.04 0 00-1.18.186l-2.04 2a.987.987 0 00-.13 1.261l3.461 5.084C.001 20.626.001 21.61.001 22c0 1.802 2.615 2 8.167 2C13.602 24 49 12.29 49 6c0-.501-.165-1.277-.945-2.015z"/></svg><svg viewBox="0 0 43 36" id="icon__send" xmlns="http://www.w3.org/2000/svg"><path d="M20.893 27.043l-1.67 6.438 4.961-5.072-.674-.268-2.617-1.098z"/><path d="M23.59 23.496a.791.791 0 01-1.208-1.023L41.377.07 3.085 15.521.128 16.745l12.143 4.916L31.6 7.269a.791.791 0 11.946 1.266L13.315 22.86l3.69 12.889 2.57-9.93h.02a.768.768 0 01.033-.167.791.791 0 011.036-.423l5.18 2.169 10.792 4.243a.748.748 0 00.667-.03.791.791 0 00.396-.576l2.596-17.346L42.872.753 23.59 23.496z"/></svg><svg viewBox="0 0 8 6" id="icon__tick" xmlns="http://www.w3.org/2000/svg"><path d="M2.67 4.888L1.05 3.266l-.54.541L2.67 5.97l4.634-4.634-.54-.541L2.67 4.888z"/></svg><svg viewBox="0 0 18 18" id="icon__user" xmlns="http://www.w3.org/2000/svg"><path d="M9 8.803c2.002 0 3.624-1.97 3.624-4.401S12.091 0 9 0C5.91 0 5.376 1.97 5.376 4.402 5.376 6.832 7 8.803 9 8.803zm-6.845 6.72c0-.147 0-.04 0 0zm13.69.117c.001-.041 0-.282 0 0zM15.837 15.346c-.067-4.234-.62-5.441-4.852-6.205 0 0-.596.76-1.985.76-1.388 0-1.984-.76-1.984-.76-4.186.756-4.773 1.944-4.85 6.068-.006.337-.01.354-.01.315v.445S3.164 18 9 18c5.837 0 6.844-2.031 6.844-2.031v-.33c0 .025-.003-.022-.007-.293z"/></svg><svg viewBox="0 0 11 13" id="icon__video-play" xmlns="http://www.w3.org/2000/svg"><path d="M10.5 5.634a1 1 0 010 1.732l-8.25 4.763a1 1 0 01-1.5-.866V1.737A1 1 0 012.25.87l8.25 4.763z"/></svg><svg viewBox="0 0 19 8" id="icon_arrow-back" xmlns="http://www.w3.org/2000/svg"><path d="M.646 4.354a.5.5 0 010-.708L3.828.464a.5.5 0 11.708.708L1.707 4l2.829 2.828a.5.5 0 11-.708.708L.646 4.354zM19 4.5H1v-1h18v1z"/></svg><svg viewBox="0 0 19 8" id="icon_arrow-forward" xmlns="http://www.w3.org/2000/svg"><path d="M18.354 4.354a.5.5 0 000-.708L15.172.464a.5.5 0 10-.708.708L17.293 4l-2.829 2.828a.5.5 0 10.708.708l3.182-3.182zM0 4.5h18v-1H0v1z"/></svg></svg>