<svg width="1549" height="245" viewBox="0 0 1549 245" fill="none" xmlns="http://www.w3.org/2000/svg">
<path fill-rule="evenodd" clip-rule="evenodd" d="M22.2886 176.835L22.2814 176.823C12.0818 159.688 7 140.329 7 118.8C7 97.2716 12.0818 78.0084 22.2868 61.068L22.2904 61.062C32.6836 43.9439 46.9574 30.6927 65.0735 21.3275C83.1882 11.763 103.512 7 126 7C146.637 7 165.124 10.6426 181.421 17.9762C197.715 25.3088 211.182 35.9148 221.789 49.7851L222.915 51.2576L175.25 93.8041L173.933 92.1424C161.232 76.12 146.471 68.3 129.6 68.3C115.277 68.3 103.932 72.9235 95.3591 82.0679L95.3519 82.0755L95.3446 82.0831C86.7789 91.0296 82.4 103.191 82.4 118.8C82.4 134.403 86.7758 146.672 95.3513 155.824C103.92 164.77 115.267 169.3 129.6 169.3C146.471 169.3 161.232 161.48 173.933 145.458L175.25 143.796L222.915 186.342L221.789 187.815C211.182 201.685 197.715 212.291 181.421 219.624C165.124 226.957 146.637 230.6 126 230.6C103.516 230.6 83.1951 225.939 65.0817 216.577L65.0739 216.573L65.0661 216.569C46.9604 207.007 32.6899 193.763 22.296 176.847L22.2886 176.835ZM93.9 157.2C84.9 147.6 80.4 134.8 80.4 118.8C80.4 102.8 84.9 90.1 93.9 80.7C102.9 71.1 114.8 66.3 129.6 66.3C146.634 66.3 161.514 73.9814 174.24 89.3443C174.662 89.8544 175.082 90.3729 175.5 90.9L220.2 51C209.8 37.4 196.6 27 180.6 19.8C164.6 12.6 146.4 9 126 9C103.8 9 83.8 13.7 66 23.1C48.2 32.3 34.2 45.3 24 62.1C14 78.7 9 97.6 9 118.8C9 140 14 159 24 175.8C34.2 192.4 48.2 205.4 66 214.8C83.8 224 103.8 228.6 126 228.6C146.4 228.6 164.6 225 180.6 217.8C196.6 210.6 209.8 200.2 220.2 186.6L175.5 146.7C175.082 147.227 174.662 147.746 174.24 148.256C161.514 163.619 146.634 171.3 129.6 171.3C114.8 171.3 102.9 166.6 93.9 157.2ZM365.442 147.6V223.8H294.642V146.7L215.442 13.8H290.142L333.042 86.4L376.242 13.8H444.642L365.442 147.6ZM333.048 82.4788L291.283 11.8H211.922L292.642 147.251V225.8H367.442V148.148L448.15 11.8H375.105L333.048 82.4788ZM449.437 176.835L449.43 176.823C439.23 159.688 434.148 140.329 434.148 118.8C434.148 97.2716 439.23 78.0084 449.435 61.068L449.439 61.062C459.832 43.944 474.106 30.6928 492.222 21.3277C510.336 11.763 530.66 7 553.148 7C573.786 7 592.272 10.6426 608.569 17.9762C624.864 25.3088 638.331 35.9148 648.937 49.7851L650.063 51.2576L602.398 93.8041L601.081 92.1424C588.38 76.12 573.62 68.3 556.748 68.3C542.425 68.3 531.08 72.9235 522.508 82.0679L522.5 82.0755L522.493 82.0831C513.927 91.0296 509.548 103.191 509.548 118.8C509.548 134.403 513.924 146.672 522.5 155.824C531.069 164.77 542.416 169.3 556.748 169.3C573.62 169.3 588.38 161.48 601.081 145.458L602.398 143.796L650.063 186.342L648.937 187.815C638.331 201.685 624.864 212.291 608.569 219.624C592.272 226.957 573.786 230.6 553.148 230.6C530.664 230.6 510.344 225.939 492.23 216.577L492.222 216.573L492.214 216.569C474.109 207.007 459.838 193.763 449.444 176.847L449.437 176.835ZM521.048 157.2C512.048 147.6 507.548 134.8 507.548 118.8C507.548 102.8 512.048 90.1 521.048 80.7C530.048 71.1 541.948 66.3 556.748 66.3C573.783 66.3 588.663 73.9814 601.388 89.3442C601.81 89.8544 602.231 90.3729 602.648 90.9L647.348 51C636.948 37.4 623.748 27 607.748 19.8C591.748 12.6 573.548 9 553.148 9C530.948 9 510.948 13.7 493.148 23.1C475.348 32.3 461.348 45.3 451.148 62.1C441.148 78.7 436.148 97.6 436.148 118.8C436.148 140 441.148 159 451.148 175.8C461.348 192.4 475.348 205.4 493.148 214.8C510.948 224 530.948 228.6 553.148 228.6C573.548 228.6 591.748 225 607.748 217.8C623.748 210.6 636.948 200.2 647.348 186.6L602.648 146.7C602.231 147.227 601.81 147.746 601.388 148.256C588.663 163.619 573.783 171.3 556.748 171.3C541.948 171.3 530.048 166.6 521.048 157.2ZM668.592 176.547L668.586 176.538C658.183 159.404 652.996 140.14 652.996 118.8C652.996 97.4621 658.183 78.2957 668.589 61.3573C678.985 44.2369 693.36 30.8893 711.67 21.3272C729.987 11.7617 750.611 7 773.496 7C796.382 7 817.005 11.7617 835.322 21.3272C853.632 30.8893 868.007 44.2371 878.403 61.3575C888.81 78.2959 893.996 97.4621 893.996 118.8C893.996 140.14 888.809 159.404 878.406 176.538L878.4 176.547C868.003 193.468 853.628 206.713 835.322 216.273C817.005 225.838 796.382 230.6 773.496 230.6C750.611 230.6 729.987 225.838 711.67 216.273C693.364 206.713 678.989 193.468 668.592 176.547ZM876.696 62.4C866.496 45.6 852.396 32.5 834.396 23.1C816.396 13.7 796.096 9 773.496 9C750.896 9 730.596 13.7 712.596 23.1C694.596 32.5 680.496 45.6 670.296 62.4C660.096 79 654.996 97.8 654.996 118.8C654.996 139.8 660.096 158.7 670.296 175.5C680.496 192.1 694.596 205.1 712.596 214.5C730.596 223.9 750.896 228.6 773.496 228.6C796.096 228.6 816.396 223.9 834.396 214.5C852.396 205.1 866.496 192.1 876.696 175.5C886.896 158.7 891.996 139.8 891.996 118.8C891.996 97.8 886.896 79 876.696 62.4ZM812.53 92.1389L812.525 92.1297C808.484 84.433 803.037 78.6226 796.188 74.6275L796.16 74.6109L796.132 74.5933C789.471 70.4067 781.945 68.3 773.496 68.3C765.048 68.3 757.411 70.4069 750.539 74.6066L750.532 74.6108L750.525 74.615C743.873 78.6065 738.515 84.4188 734.467 92.1297L734.462 92.1389L734.457 92.1482C730.442 99.6046 728.396 108.466 728.396 118.8C728.396 129.127 730.439 138.094 734.461 145.759C738.503 153.263 743.861 159.089 750.532 163.289C757.402 167.289 765.041 169.3 773.496 169.3C781.96 169.3 789.497 167.285 796.16 163.289C803.035 159.086 808.49 153.26 812.529 145.763C816.552 138.098 818.596 129.129 818.596 118.8C818.596 108.466 816.55 99.6046 812.535 92.1482L812.53 92.1389ZM814.296 146.7C810.096 154.5 804.396 160.6 797.196 165C790.196 169.2 782.296 171.3 773.496 171.3C764.696 171.3 756.696 169.2 749.496 165C742.496 160.6 736.896 154.5 732.696 146.7C728.496 138.7 726.396 129.4 726.396 118.8C726.396 108.2 728.496 99 732.696 91.2C736.896 83.2 742.496 77.1 749.496 72.9C756.696 68.5 764.696 66.3 773.496 66.3C782.296 66.3 790.196 68.5 797.196 72.9C804.396 77.1 810.096 83.2 814.296 91.2C818.496 99 820.596 108.2 820.596 118.8C820.596 129.4 818.496 138.7 814.296 146.7ZM1137.49 11.8L1047 225.8H974.75L884.259 11.8H964.819L1013.6 131.263L1063.54 11.8H1137.49ZM1013.58 136.5L963.476 13.8H887.276L976.076 223.8H1045.68L1134.48 13.8H1064.88L1013.58 136.5ZM1318.12 168.4V225.8H1139.52V11.8H1314.22V69.2H1213.12V89.8H1301.92V144.8H1213.12V168.4H1318.12ZM1211.12 142.8H1299.92V91.8H1211.12V67.2H1312.22V13.8H1141.52V223.8H1316.12V170.4H1211.12V142.8ZM1469.08 223.8L1433.38 171H1414.18V223.8H1343.38V13.8H1444.48C1463.88 13.8 1480.78 17 1495.18 23.4C1509.58 29.8 1520.68 39 1528.48 51C1536.28 63 1540.18 77 1540.18 93C1540.18 108 1536.78 121.1 1529.98 132.3C1523.49 142.976 1514.29 151.562 1502.35 158.058C1501.77 158.377 1501.18 158.691 1500.58 159L1544.68 223.8H1469.08ZM1503.49 159.719C1515.61 153.081 1525.04 144.291 1531.69 133.338C1538.7 121.782 1542.18 108.312 1542.18 93C1542.18 76.6602 1538.19 62.2719 1530.15 49.91C1522.12 37.5533 1510.71 28.113 1495.99 21.5724C1481.28 15.0356 1464.09 11.8 1444.48 11.8H1341.38V225.8H1416.18V173H1432.31L1468.01 225.8H1548.46L1503.49 159.719ZM1460.24 76.4899L1460.23 76.4743C1455.94 72.5424 1449.31 70.4 1439.98 70.4H1416.18V115.6H1439.98C1449.32 115.6 1455.95 113.554 1460.24 109.81C1464.54 105.864 1466.78 100.35 1466.78 93C1466.78 85.6369 1464.53 80.2421 1460.26 76.5051L1460.24 76.4899ZM1461.58 111.3C1456.78 115.5 1449.58 117.6 1439.98 117.6H1414.18V68.4H1439.98C1449.58 68.4 1456.78 70.6 1461.58 75C1466.38 79.2 1468.78 85.2 1468.78 93C1468.78 100.8 1466.38 106.9 1461.58 111.3Z" fill="#BBBBBB"/>
<circle cx="361.5" cy="35.5" r="9.5" fill="#1F4DF1"/>
<circle cx="351.5" cy="13.5" r="4.5" fill="#1F4DF1"/>
<circle cx="602.5" cy="219.5" r="9.5" fill="#1F4DF1"/>
<circle cx="588.5" cy="240.5" r="4.5" fill="#1F4DF1"/>
<circle cx="9.5" cy="100.5" r="9.5" fill="#1F4DF1"/>
<circle cx="23.5" cy="116.5" r="4.5" fill="#1F4DF1"/>
<circle cx="996.5" cy="205.5" r="4.5" fill="#1F4DF1"/>
<circle cx="1010.5" cy="224.5" r="9.5" fill="#1F4DF1"/>
<circle cx="1475.5" cy="199.5" r="4.5" fill="#1F4DF1"/>
<circle cx="1449.5" cy="194.5" r="9.5" fill="#1F4DF1"/>
<circle cx="183.5" cy="197.5" r="4.5" fill="#1F4DF1"/>
<circle cx="132.5" cy="240.5" r="4.5" fill="#1F4DF1"/>
<circle cx="162.5" cy="222.5" r="13.5" fill="#1F4DF1"/>
<circle cx="1403.5" cy="39.5" r="4.5" fill="#1F4DF1"/>
<circle cx="1361.5" cy="4.5" r="4.5" fill="#1F4DF1"/>
<circle cx="1390.5" cy="13.5" r="13.5" fill="#1F4DF1"/>
</svg>
