<svg width="44" height="44" viewBox="0 0 44 44" fill="none" xmlns="http://www.w3.org/2000/svg">
<g clip-path="url(#clip0)">
<path d="M38.6895 0.90625L29.1982 9.16033L38.6895 18.6512V0.90625Z" fill="#304BAB"/>
<path d="M37.6169 19.7243L28.0508 10.1582L23.8262 13.832C27.1185 14.4517 29.8388 16.7072 31.1012 19.725H37.6169V19.7243Z" fill="#304BAB"/>
<path d="M15.9494 10.1582L6.3833 19.7243H12.899C14.1614 16.7072 16.8818 14.451 20.174 13.8313L15.9494 10.1582Z" fill="#304BAB"/>
<path d="M22.0001 31.862C26.6011 31.862 30.3449 28.1182 30.3449 23.5172C30.3449 18.9162 26.6011 15.1724 22.0001 15.1724C17.3991 15.1724 13.6553 18.9162 13.6553 23.5172C13.6553 28.1182 17.3991 31.862 22.0001 31.862ZM22.7587 24.2758H21.2415C19.5679 24.2758 18.207 22.9149 18.207 21.2413C18.207 19.5678 19.5679 18.2068 21.2415 18.2068V16.6896H22.7587V18.2068C24.4323 18.2068 25.7932 19.5678 25.7932 21.2413H24.276C24.276 20.4045 23.5955 19.7241 22.7587 19.7241H21.2415C20.4047 19.7241 19.7242 20.4045 19.7242 21.2413C19.7242 22.0781 20.4047 22.7586 21.2415 22.7586H22.7587C24.4323 22.7586 25.7932 24.1195 25.7932 25.7931C25.7932 27.4666 24.4323 28.8275 22.7587 28.8275V30.3448H21.2415V28.8275C19.5679 28.8275 18.207 27.4666 18.207 25.7931H19.7242C19.7242 26.6298 20.4047 27.3103 21.2415 27.3103H22.7587C23.5955 27.3103 24.276 26.6298 24.276 25.7931C24.276 24.9563 23.5955 24.2758 22.7587 24.2758Z" fill="#304BAB"/>
<path d="M37.4198 0H6.58008L21.9999 13.4085L37.4198 0Z" fill="#304BAB"/>
<path d="M41.7241 7.58643H40.2069V21.2416H31.5868C31.7606 21.9735 31.8621 22.7329 31.8621 23.5175C31.8621 28.9552 27.4378 33.3795 22 33.3795C16.5622 33.3795 12.1379 28.9552 12.1379 23.5175C12.1379 22.7329 12.2394 21.9735 12.4132 21.2416H3.7931V7.58643H2.27586C1.02125 7.58643 0 8.60767 0 9.86229V34.8968H44V9.86229C44 8.60767 42.9788 7.58643 41.7241 7.58643V7.58643Z" fill="#304BAB"/>
<path d="M0 37.1722C0 38.4268 1.02125 39.4481 2.27586 39.4481H41.7241C42.9788 39.4481 44 38.4268 44 37.1722V36.4136H0V37.1722Z" fill="#304BAB"/>
<path d="M5.31055 0.90625V18.6512L14.8018 9.16033L5.31055 0.90625Z" fill="#304BAB"/>
<path d="M31.1032 42.4826V40.9653H12.8963V42.4826H9.86182V43.9998H34.1377V42.4826H31.1032Z" fill="#304BAB"/>
</g>
<defs>
<clipPath id="clip0">
<rect width="44" height="44" fill="white"/>
</clipPath>
</defs>
</svg>
