<svg width="52" height="52" viewBox="0 0 52 52" fill="none" xmlns="http://www.w3.org/2000/svg">
<path d="M52 14.7582V11.7114H47.5652V8.37423L43.6259 4.43493H40.2887V0H37.2419V4.43493H31.7786V0H28.7317V4.43493H23.2685V0H20.2216V4.43493H14.7584V0H11.7115V4.43493H8.37423L4.43493 8.37423V11.7114H0V14.7582H4.43493V20.2215H0V23.2684H4.43493V28.7317H0V31.7786H4.43493V37.2419H0V40.2887H4.43493V43.6259L8.37423 47.5652H11.7114V52H14.7582V47.5651H20.2215V52H23.2684V47.5651H28.7316V52H31.7785V47.5651H37.2417V52H40.2886V47.5651H43.6258L47.5651 43.6258V40.2886H52V37.2417H47.5652V31.7785H52V30.2551V28.7316H47.5652V23.2683H52V20.2215H47.5652V14.7582H52V14.7582ZM36.2067 37.2073H15.7934V24.7633H18.8508V20.7925C18.8508 16.8504 22.058 13.6432 26.0001 13.6432C29.9421 13.6432 33.1493 16.8504 33.1493 20.7925V24.7633H36.2067V37.2073V37.2073Z" fill="#1F4DF1"/>
<path d="M25.9999 16.6899C23.7378 16.6899 21.8975 18.5303 21.8975 20.7924V24.7631H30.1022V20.7924C30.1023 18.5304 28.2619 16.6899 25.9999 16.6899Z" fill="#1F4DF1"/>
<path d="M27.5235 27.8101V30.9312H24.4766V27.8101H18.8403V34.1604H33.1599V27.8101H27.5235Z" fill="#1F4DF1"/>
</svg>
