<svg width="51" height="51" viewBox="0 0 51 51" fill="none" xmlns="http://www.w3.org/2000/svg">
<g clip-path="url(#clip0)">
<path d="M10.2376 27.957C10.5304 28.9123 10.8332 29.9002 10.9843 30.8952C11.046 31.3007 11.2882 34.2503 11.4191 35.8708C11.4693 36.4917 11.9401 36.9964 12.556 37.0896L14.7078 37.4149C15.018 37.4618 15.2654 37.6984 15.3259 38.0063L15.6094 39.4564C15.7326 40.0867 16.285 40.5413 16.9272 40.5409L33.6139 40.531C34.2449 40.5306 34.7904 40.0908 34.9244 39.4742L35.2491 37.9813C35.3208 37.6866 35.5643 37.4652 35.8644 37.4215L38.4841 37.041C39.1136 36.9496 39.5924 36.429 39.6307 35.794C39.7312 34.1267 39.9188 31.0912 39.9769 30.6752C40.1147 29.6932 40.4045 28.7226 40.6844 27.7783C41.0769 26.4568 41.4826 25.0928 41.4826 23.6742C41.4831 14.6152 34.2824 7.24658 25.4319 7.24658C16.5814 7.24658 9.38086 14.6192 9.38086 23.6803C9.38094 25.1621 9.81644 26.5831 10.2376 27.957ZM27.5234 27.121C27.6252 24.5479 29.9326 23.9009 32.5057 24.0026C35.0788 24.1043 36.9431 24.9163 36.8414 27.4894C36.7396 30.0625 34.5713 32.0659 31.9982 31.9642C29.4251 31.8624 27.4217 29.6941 27.5234 27.121ZM26.0096 32.1701L27.6798 34.6433C27.8279 34.8627 27.8482 35.1443 27.733 35.3826L27.4934 35.8785C27.3694 36.1353 27.1094 36.2983 26.8243 36.2983H25.3937H23.9631C23.6779 36.2983 23.4179 36.1352 23.2939 35.8785L23.0544 35.3826C22.9392 35.1443 22.9595 34.8628 23.1076 34.6433L24.7778 32.1701C25.0724 31.7337 25.7149 31.7337 26.0096 32.1701ZM18.3579 24.0027C20.931 23.9009 23.2384 24.5479 23.3402 27.1211C23.4419 29.6942 21.4385 31.8625 18.8654 31.9643C16.2924 32.066 14.124 30.0626 14.0223 27.4895C13.9205 24.9163 15.7849 24.1043 18.3579 24.0027Z" fill="#304BAB"/>
<path d="M46.3627 4.88408C46.5628 3.65492 46.1886 2.35033 45.2377 1.40433C43.7106 -0.115167 41.2191 -0.142834 39.6603 1.34425C38.0305 2.89917 38.0075 5.48142 39.5913 7.06525L38.1355 8.52108C37.5538 9.10283 37.5538 10.046 38.1355 10.6278L40.619 13.1112C41.2006 13.693 42.1439 13.693 42.7256 13.1112L44.1814 11.6554C45.7653 13.2393 48.3476 13.2162 49.9024 11.5864C51.3895 10.0277 51.3617 7.53608 49.8422 6.009C48.8963 5.05817 47.5918 4.68392 46.3627 4.88408Z" fill="#304BAB"/>
<path d="M6.81872 11.6553L8.27455 13.1112C8.8563 13.6929 9.79947 13.6929 10.3811 13.1112L12.8646 10.6277C13.4464 10.0459 13.4464 9.10276 12.8646 8.52101L11.4088 7.06518C12.9927 5.48134 12.9696 2.89909 11.3398 1.34418C9.78105 -0.142823 7.28955 -0.115157 5.76238 1.40434C4.81163 2.35034 4.43738 3.65493 4.63755 4.88409C3.40838 4.68393 2.10388 5.05818 1.15779 6.00893C-0.361707 7.53601 -0.389457 10.0276 1.09763 11.5863C2.65255 13.2162 5.2348 13.2392 6.81872 11.6553Z" fill="#304BAB"/>
<path d="M49.9024 39.4133C48.3474 37.7834 45.7652 37.7605 44.1814 39.3443L42.7255 37.8885C42.1438 37.3067 41.2006 37.3067 40.619 37.8885L38.1355 40.372C37.5538 40.9537 37.5538 41.8969 38.1355 42.4786L39.5913 43.9344C38.0074 45.5184 38.0305 48.1006 39.6603 49.6554C41.219 51.1425 43.7106 51.1148 45.2377 49.5953C46.1885 48.6493 46.5628 47.3448 46.3626 46.1156C47.5918 46.3158 48.8963 45.9415 49.8423 44.9907C51.3617 43.4635 51.3894 40.972 49.9024 39.4133Z" fill="#304BAB"/>
<path d="M4.63742 46.1156C4.43725 47.3448 4.8115 48.6494 5.76233 49.5954C7.2895 51.1149 9.781 51.1425 11.3398 49.6555C12.9696 48.1005 12.9926 45.5183 11.4088 43.9345L12.8646 42.4786C13.4463 41.897 13.4463 40.9537 12.8646 40.372L10.3811 37.8885C9.79933 37.3067 8.85617 37.3067 8.2745 37.8885L6.81867 39.3443C5.23475 37.7604 2.6525 37.7834 1.09767 39.4133C-0.389416 40.972 -0.361749 43.4635 1.15775 44.9907C2.10375 45.9415 3.40825 46.3158 4.63742 46.1156Z" fill="#304BAB"/>
</g>
<defs>
<clipPath id="clip0">
<rect width="51" height="51" fill="white"/>
</clipPath>
</defs>
</svg>
