<svg width="49" height="49" viewBox="0 0 49 49" fill="none" xmlns="http://www.w3.org/2000/svg">
<path d="M42.2275 18.0497C42.695 18.0497 43.0741 18.4288 43.0741 18.8964V42.6027C43.0741 43.0702 42.695 43.4493 42.2275 43.4493H4.97729C4.50976 43.4493 4.13069 43.0702 4.13069 42.6027V18.8964C4.13069 18.4288 4.50976 18.0497 4.97729 18.0497H13.9393L15.6325 16.3564H4.97729C3.5747 16.3564 2.4375 17.4933 2.4375 18.8964V42.6027C2.4375 44.0053 3.5747 45.1426 4.97729 45.1426H42.2275C43.6301 45.1426 44.7673 44.0053 44.7673 42.6027V18.8964C44.7673 17.4933 43.6301 16.3564 42.2275 16.3564H34.8698C34.7983 16.4842 34.7102 16.602 34.6081 16.7066L33.2655 18.0497H42.2275Z" fill="#304BAB"/>
<path d="M4.13046 48.5292H43.0738C45.8869 48.5292 46.9087 47.8781 47.2043 46.8359H0C0.295564 47.8781 1.31702 48.5292 4.13046 48.5292Z" fill="#304BAB"/>
<path d="M15.1361 21.9321L22.1569 14.9109L23.354 16.1081L16.3332 23.1293L21.0623 27.8587L33.4107 15.5095L31.6447 13.743L28.8569 16.5314C27.8251 17.5633 26.1518 17.5633 25.12 16.5314C24.0882 15.4991 24.0882 13.8261 25.12 12.7942L27.9078 10.0062L26.1418 8.23975L13.7935 20.5894L15.1361 21.9321Z" fill="#304BAB"/>
<path d="M5.82373 19.7432V41.7561H41.3807V19.7432H31.5721L22.2596 29.0563C21.5982 29.7174 20.5267 29.7174 19.8653 29.0563L12.5965 21.7866C12.057 21.243 11.95 20.405 12.3348 19.7432H5.82373ZM29.5284 32.4429C29.5284 31.9754 29.9075 31.5963 30.375 31.5963H36.3012V28.7173C36.3012 27.7822 35.543 27.024 34.608 27.024C33.6729 27.024 32.9148 27.7822 32.9148 28.7173V29.0563H31.2216V28.7173C31.2216 26.8471 32.7378 25.3307 34.608 25.3307C36.4781 25.3307 37.9943 26.8471 37.9943 28.7173V31.5963H38.8409C39.3085 31.5963 39.6875 31.9754 39.6875 32.4429V39.2162C39.6875 39.6837 39.3085 40.0628 38.8409 40.0628H30.375C29.9075 40.0628 29.5284 39.6837 29.5284 39.2162V32.4429ZM13.1951 35.5815L11.9979 34.3843L12.8445 33.5376L14.0417 34.7349L13.1951 35.5815ZM19.1212 29.655L14.8883 33.8882L13.6911 32.691L17.9241 28.4577L19.1212 29.655ZM15.3843 25.9178L16.5814 27.115L14.0417 29.655L12.8445 28.4577L15.3843 25.9178ZM13.1951 30.5016L12.3485 31.3483L11.1513 30.151L11.9979 29.3044L13.1951 30.5016Z" fill="#304BAB"/>
<path d="M37.9944 33.2896H31.2217V38.3695H37.9944V33.2896ZM35.4547 36.6762H33.7615V34.9829H35.4547V36.6762Z" fill="#304BAB"/>
<path d="M41.3809 4.50321L28.6398 0.523774C28.133 0.365027 27.5815 0.453082 27.1496 0.761482L22.6185 3.99513C22.1733 4.31304 21.9088 4.8269 21.9092 5.37425V11.2764L26.1422 7.04316L29.0697 9.97089C28.9172 10.1656 25.7189 13.3931 25.7189 13.3931C25.3596 13.7527 25.1695 14.2476 25.1955 14.7556C25.2216 15.2633 25.4617 15.7362 25.8561 16.0574C26.6109 16.6317 27.677 16.5465 28.3314 15.8598L33.7615 10.4298C35.4179 11.5336 37.3637 12.1231 39.3541 12.1231H49.0002V4.50321H41.3809Z" fill="#304BAB"/>
</svg>
