<svg width="49" height="49" viewBox="0 0 49 49" fill="none" xmlns="http://www.w3.org/2000/svg">
<path d="M44.7616 3.2334H4.23732C1.90695 3.2334 0 5.14202 0 7.47047V34.4585C0 36.7903 1.90889 38.6964 4.23732 38.6964H22.7708V42.3082H9.80344L8.07451 44.0371V45.766H40.9255V44.0371L39.1968 42.3082H26.2286V38.6981H44.7616C47.095 38.6981 48.9997 36.79 48.9997 34.4599V7.47047C49 5.14202 47.095 3.2334 44.7616 3.2334ZM47.2708 29.2731C47.2708 30.6576 46.1461 31.7823 44.7616 31.7823H4.23732C2.85446 31.7823 1.7292 30.6576 1.7292 29.2731V7.47047C1.7292 6.0876 2.85446 4.96233 4.23732 4.96233H44.7618C46.1464 4.96233 47.2711 6.0876 47.2711 7.47047V29.2731H47.2708Z" fill="#1F4DF1"/>
<path d="M32.5571 12.7431L30.8687 13.3703C30.6308 13.4565 30.3488 13.4152 30.2304 13.2841C30.1206 13.1524 29.8826 12.6374 29.9908 12.4136L30.7472 10.7798C30.8468 10.5502 30.7472 10.2818 30.5212 10.1761L26.8216 8.47161C26.5986 8.36929 26.3269 8.46995 26.2224 8.69123L25.4665 10.3342C25.3591 10.5571 25.1348 10.7352 24.9634 10.7216C24.7888 10.7141 24.2541 10.5205 24.1682 10.2851L23.5434 8.58918C23.4572 8.35792 23.1965 8.23785 22.9625 8.32159L19.1414 9.73247C18.9065 9.82037 18.7834 10.0805 18.8702 10.3167L19.4941 12.0127C19.5817 12.2414 19.544 12.5284 19.4115 12.6407C19.2814 12.7514 18.7682 12.991 18.5402 12.8898L16.9025 12.1308C16.6796 12.0285 16.4078 12.1291 16.3038 12.3554L14.5977 16.059C14.4923 16.2819 14.5943 16.5528 14.8206 16.6549L16.4552 17.4122C16.6832 17.5125 16.8562 17.7405 16.8512 17.9152C16.8351 18.0885 16.6402 18.6176 16.4098 18.7055L14.7138 19.3294C14.4842 19.4145 14.3617 19.6754 14.4463 19.9112L15.8568 23.7389C15.9414 23.9669 16.2082 24.0928 16.4378 24.0049L18.132 23.3776C18.3658 23.2908 18.6514 23.3294 18.7654 23.4639C18.8777 23.5956 19.1164 24.1061 19.0127 24.3326L18.2554 25.967C18.1501 26.1933 18.2521 26.462 18.4751 26.5698L22.1803 28.2738C22.4065 28.3803 22.6819 28.2805 22.7798 28.0578L23.5354 26.4165C23.641 26.1936 23.869 26.018 24.042 26.0283C24.2134 26.0383 24.7444 26.2307 24.8323 26.4672L25.457 28.1607C25.5397 28.3919 25.8039 28.517 26.0405 28.4294L29.8632 27.0193C30.0962 26.9317 30.2176 26.6716 30.1283 26.4354L29.5052 24.7419C29.4157 24.5087 29.4545 24.2236 29.5829 24.1105C29.7213 23.9974 30.2312 23.7608 30.4608 23.8621L32.0954 24.6202C32.325 24.7231 32.5918 24.6235 32.6966 24.3939L34.3986 20.6945C34.5068 20.4682 34.4053 20.2006 34.179 20.0967L32.5444 19.341C32.3184 19.2373 32.1695 18.6911 32.1695 18.5161C32.1695 18.343 32.3553 18.132 32.5915 18.0441L34.2866 17.4177C34.5215 17.3315 34.6379 17.0692 34.5534 16.8368L33.1419 13.0159C33.0568 12.7794 32.7917 12.6543 32.5571 12.7431ZM22.83 23.5529C22.83 23.5529 23.9291 23.0024 23.4749 21.9296C23.2722 21.9659 22.6913 22.0732 22.2382 22.1328C21.7857 22.1938 21.3897 21.9185 21.3062 21.6922C21.2236 21.4676 21.469 21.0589 21.3669 20.9297C21.2649 20.7996 20.9227 20.4247 21.042 20.1033C21.1629 19.7817 21.1046 19.6153 21.1046 19.6153C21.1046 19.6153 20.4469 19.488 20.387 19.2487C20.3279 19.0091 21.2827 17.5425 21.2827 17.5425C21.2827 17.5425 21.0802 17.1845 21.032 16.9929C20.9848 16.8038 21.032 15.7753 21.6509 14.6079C22.2715 13.4394 23.6915 13.0206 25.5876 13.2597C27.4857 13.4984 28.6032 15.4126 28.6051 16.5639C28.6151 18.8527 26.9927 19.9023 26.9722 20.727C26.935 22.2052 28.6151 23.5543 28.6151 23.5543H22.83V23.5529Z" fill="#1F4DF1"/>
</svg>
