<svg width="50" height="50" viewBox="0 0 50 50" fill="none" xmlns="http://www.w3.org/2000/svg">
<path d="M10.2969 22.6562H9.23437C9.07319 23.1121 8.77494 23.507 8.38052 23.7868C7.98609 24.0665 7.5148 24.2174 7.03125 24.2188H5.46875V31.25C5.46875 31.4572 5.55106 31.6559 5.69757 31.8024C5.84409 31.9489 6.0428 32.0312 6.25 32.0312H43.75C43.9572 32.0312 44.1559 31.9489 44.3024 31.8024C44.4489 31.6559 44.5312 31.4572 44.5312 31.25V24.2188H42.9688C42.4852 24.2174 42.0139 24.0665 41.6195 23.7868C41.2251 23.507 40.9268 23.1121 40.7656 22.6562H39.7031C39.5419 23.1121 39.2437 23.507 38.8493 23.7868C38.4548 24.0665 37.9836 24.2174 37.5 24.2188H35.9375C35.4539 24.2174 34.9827 24.0665 34.5882 23.7868C34.1938 23.507 33.8956 23.1121 33.7344 22.6562H32.0312V27.3438C32.0312 27.551 31.9489 27.7497 31.8024 27.8962C31.6559 28.0427 31.4572 28.125 31.25 28.125H18.75C18.5428 28.125 18.3441 28.0427 18.1976 27.8962C18.0511 27.7497 17.9688 27.551 17.9688 27.3438V22.6562H16.2656C16.1044 23.1121 15.8062 23.507 15.4118 23.7868C15.0173 24.0665 14.5461 24.2174 14.0625 24.2188H12.5C12.0164 24.2174 11.5452 24.0665 11.1507 23.7868C10.7563 23.507 10.4581 23.1121 10.2969 22.6562V22.6562Z" fill="#1F4DF1"/>
<path d="M28.9062 17.1875V14.8438C28.9062 13.8077 28.4947 12.8142 27.7621 12.0816C27.0296 11.3491 26.036 10.9375 25 10.9375C23.964 10.9375 22.9704 11.3491 22.2379 12.0816C21.5053 12.8142 21.0938 13.8077 21.0938 14.8438V17.1875H22.6562V14.8438C22.6562 14.2221 22.9032 13.626 23.3427 13.1865C23.7823 12.7469 24.3784 12.5 25 12.5C25.6216 12.5 26.2177 12.7469 26.6573 13.1865C27.0968 13.626 27.3438 14.2221 27.3438 14.8438V17.1875H28.9062Z" fill="#1F4DF1"/>
<path d="M14.0625 22.6562C14.2697 22.6562 14.4684 22.5739 14.6149 22.4274C14.7614 22.2809 14.8438 22.0822 14.8438 21.875C14.8438 21.6678 14.7614 21.4691 14.6149 21.3226C14.4684 21.1761 14.2697 21.0938 14.0625 21.0938H12.5C12.2928 21.0938 12.0941 21.1761 11.9476 21.3226C11.8011 21.4691 11.7188 21.6678 11.7188 21.875C11.7188 22.0822 11.8011 22.2809 11.9476 22.4274C12.0941 22.5739 12.2928 22.6562 12.5 22.6562H14.0625Z" fill="#1F4DF1"/>
<path d="M46.0938 23.6094V31.25C46.0937 31.8716 45.8468 32.4677 45.4073 32.9073C44.9677 33.3468 44.3716 33.5938 43.75 33.5938H6.25C5.6284 33.5938 5.03226 33.3468 4.59272 32.9073C4.15318 32.4677 3.90625 31.8716 3.90625 31.25V23.6094C3.61697 23.3497 3.39682 23.0222 3.26562 22.6562H2.34375V31.25C2.34375 32.286 2.7553 33.2796 3.48786 34.0121C4.22043 34.7447 5.214 35.1562 6.25 35.1562H43.75C44.786 35.1562 45.7796 34.7447 46.5121 34.0121C47.2447 33.2796 47.6562 32.286 47.6562 31.25V22.6562H46.7344C46.6032 23.0222 46.383 23.3497 46.0938 23.6094V23.6094Z" fill="#1F4DF1"/>
<path d="M24.2188 14.8438V17.1875H25.7812V14.8438C25.7812 14.6365 25.6989 14.4378 25.5524 14.2913C25.4059 14.1448 25.2072 14.0625 25 14.0625C24.7928 14.0625 24.5941 14.1448 24.4476 14.2913C24.3011 14.4378 24.2188 14.6365 24.2188 14.8438Z" fill="#1F4DF1"/>
<path d="M33.5938 44.5312H16.4062C16.199 44.5312 16.0003 44.6136 15.8538 44.7601C15.7073 44.9066 15.625 45.1053 15.625 45.3125V47.6562H34.375V45.3125C34.375 45.1053 34.2927 44.9066 34.1462 44.7601C33.9997 44.6136 33.801 44.5312 33.5938 44.5312Z" fill="#1F4DF1"/>
<path d="M30.4688 36.7188H19.5312V42.9688H30.4688V36.7188Z" fill="#1F4DF1"/>
<path d="M37.5 22.6562C37.7072 22.6562 37.9059 22.5739 38.0524 22.4274C38.1989 22.2809 38.2812 22.0822 38.2812 21.875C38.2812 21.6678 38.1989 21.4691 38.0524 21.3226C37.9059 21.1761 37.7072 21.0938 37.5 21.0938H35.9375C35.7303 21.0938 35.5316 21.1761 35.3851 21.3226C35.2386 21.4691 35.1562 21.6678 35.1562 21.875C35.1562 22.0822 35.2386 22.2809 35.3851 22.4274C35.5316 22.5739 35.7303 22.6562 35.9375 22.6562H37.5Z" fill="#1F4DF1"/>
<path d="M4.6875 21.875C4.6875 22.0822 4.76981 22.2809 4.91632 22.4274C5.06284 22.5739 5.26155 22.6562 5.46875 22.6562H7.03125C7.23845 22.6562 7.43716 22.5739 7.58368 22.4274C7.73019 22.2809 7.8125 22.0822 7.8125 21.875C7.8125 21.6678 7.73019 21.4691 7.58368 21.3226C7.43716 21.1761 7.23845 21.0938 7.03125 21.0938H5.46875C5.26155 21.0938 5.06284 21.1761 4.91632 21.3226C4.76981 21.4691 4.6875 21.6678 4.6875 21.875Z" fill="#1F4DF1"/>
<path d="M43.75 2.34375H6.25C5.214 2.34375 4.22043 2.7553 3.48786 3.48786C2.7553 4.22043 2.34375 5.214 2.34375 6.25V21.0938H3.26562C3.39682 20.7278 3.61697 20.4003 3.90625 20.1406V6.25C3.90625 5.6284 4.15318 5.03226 4.59272 4.59272C5.03226 4.15318 5.6284 3.90625 6.25 3.90625H43.75C44.3716 3.90625 44.9677 4.15318 45.4073 4.59272C45.8468 5.03226 46.0938 5.6284 46.0938 6.25V20.1406C46.383 20.4003 46.6032 20.7278 46.7344 21.0938H47.6562V6.25C47.6563 5.214 47.2447 4.22043 46.5121 3.48786C45.7796 2.7553 44.786 2.34375 43.75 2.34375V2.34375Z" fill="#1F4DF1"/>
<path d="M43.75 5.46875H6.25C6.0428 5.46875 5.84409 5.55106 5.69757 5.69757C5.55106 5.84409 5.46875 6.0428 5.46875 6.25V19.5312H7.03125C7.5148 19.5326 7.98609 19.6835 8.38052 19.9632C8.77494 20.243 9.07319 20.6379 9.23437 21.0938H10.2969C10.4581 20.6379 10.7563 20.243 11.1507 19.9632C11.5452 19.6835 12.0164 19.5326 12.5 19.5312H14.0625C14.5461 19.5326 15.0173 19.6835 15.4118 19.9632C15.8062 20.243 16.1044 20.6379 16.2656 21.0938H17.9688V17.9688C17.9688 17.7615 18.0511 17.5628 18.1976 17.4163C18.3441 17.2698 18.5428 17.1875 18.75 17.1875H19.5312V14.8438C19.5312 13.3933 20.1074 12.0023 21.133 10.9768C22.1586 9.95117 23.5496 9.375 25 9.375C26.4504 9.375 27.8414 9.95117 28.867 10.9768C29.8926 12.0023 30.4688 13.3933 30.4688 14.8438V17.1875H31.25C31.4572 17.1875 31.6559 17.2698 31.8024 17.4163C31.9489 17.5628 32.0312 17.7615 32.0312 17.9688V21.0938H33.7344C33.8956 20.6379 34.1938 20.243 34.5882 19.9632C34.9827 19.6835 35.4539 19.5326 35.9375 19.5312H37.5C37.9836 19.5326 38.4548 19.6835 38.8493 19.9632C39.2437 20.243 39.5419 20.6379 39.7031 21.0938H40.7656C40.9268 20.6379 41.2251 20.243 41.6195 19.9632C42.0139 19.6835 42.4852 19.5326 42.9688 19.5312H44.5312V6.25C44.5312 6.0428 44.4489 5.84409 44.3024 5.69757C44.1559 5.55106 43.9572 5.46875 43.75 5.46875Z" fill="#1F4DF1"/>
<path d="M45.3125 21.875C45.3125 21.6678 45.2302 21.4691 45.0837 21.3226C44.9372 21.1761 44.7385 21.0938 44.5312 21.0938H42.9688C42.7615 21.0938 42.5628 21.1761 42.4163 21.3226C42.2698 21.4691 42.1875 21.6678 42.1875 21.875C42.1875 22.0822 42.2698 22.2809 42.4163 22.4274C42.5628 22.5739 42.7615 22.6562 42.9688 22.6562H44.5312C44.7385 22.6562 44.9372 22.5739 45.0837 22.4274C45.2302 22.2809 45.3125 22.0822 45.3125 21.875Z" fill="#1F4DF1"/>
<path d="M19.5312 26.5625H30.4688V18.75H19.5312V26.5625ZM25 20.3125C25.4635 20.3125 25.9167 20.45 26.3021 20.7075C26.6875 20.965 26.9879 21.3311 27.1653 21.7593C27.3427 22.1876 27.3891 22.6589 27.2987 23.1135C27.2083 23.5681 26.9851 23.9858 26.6573 24.3135C26.3295 24.6413 25.9119 24.8645 25.4572 24.955C25.0026 25.0454 24.5314 24.999 24.1031 24.8216C23.6748 24.6442 23.3088 24.3438 23.0512 23.9584C22.7937 23.5729 22.6562 23.1198 22.6562 22.6562C22.6562 22.0346 22.9032 21.4385 23.3427 20.999C23.7823 20.5594 24.3784 20.3125 25 20.3125Z" fill="#1F4DF1"/>
<path d="M25 23.4375C25.4315 23.4375 25.7812 23.0877 25.7812 22.6562C25.7812 22.2248 25.4315 21.875 25 21.875C24.5685 21.875 24.2188 22.2248 24.2188 22.6562C24.2188 23.0877 24.5685 23.4375 25 23.4375Z" fill="#1F4DF1"/>
</svg>
