<svg width="54" height="54" viewBox="0 0 54 54" fill="none" xmlns="http://www.w3.org/2000/svg">
<path d="M22.7812 47.5368C22.5574 47.5359 22.3426 47.4482 22.1822 47.2921L9.72 34.8046C8.24658 33.339 7.07676 31.5972 6.27755 29.6788C5.47834 27.7604 5.06544 25.7032 5.0625 23.6249V10.9687C5.0625 10.7861 5.12171 10.6085 5.23125 10.4624C5.34079 10.3164 5.49474 10.2098 5.67 10.1587L22.545 5.23963C22.6997 5.19744 22.8628 5.19744 23.0175 5.23963L39.8925 10.1587C40.0678 10.2098 40.2217 10.3164 40.3312 10.4624C40.4408 10.6085 40.5 10.7861 40.5 10.9687V14.3774C40.7784 14.3521 41.0569 14.3437 41.3438 14.3437C41.6306 14.3437 41.9091 14.3521 42.1875 14.3774V9.07025L22.7812 3.40869L3.375 9.07025V23.6249C3.37656 25.926 3.83281 28.2041 4.71753 30.3283C5.60225 32.4525 6.89799 34.3809 8.53031 36.0028L22.7812 50.2706L30.375 42.6684V40.289L23.3803 47.2921C23.2194 47.4475 23.0049 47.5352 22.7812 47.5368Z" fill="#304BAB"/>
<path d="M46.4062 28.6877V24.9499L42.93 22.8574L36.2812 25.0765V28.6877C36.2813 30.0304 36.8146 31.3181 37.764 32.2675C38.7134 33.2169 40.0011 33.7502 41.3438 33.7502C42.6864 33.7502 43.9741 33.2169 44.9235 32.2675C45.8729 31.3181 46.4062 30.0304 46.4062 28.6877Z" fill="#304BAB"/>
<path d="M32.0625 37.9687V50.625H33.75V35.5894C33.2583 35.7645 32.8325 36.0869 32.5306 36.5126C32.2286 36.9384 32.0652 37.4468 32.0625 37.9687V37.9687Z" fill="#304BAB"/>
<path d="M41.3438 38.8125C40.4486 38.8125 39.5902 38.4569 38.9573 37.824C38.3243 37.191 37.9688 36.3326 37.9688 35.4375H35.4375V50.625H47.25V35.4375H44.7188C44.7188 36.3326 44.3632 37.191 43.7302 37.824C43.0973 38.4569 42.2389 38.8125 41.3438 38.8125Z" fill="#304BAB"/>
<path d="M48.9375 35.5894V50.625H50.625V37.9687C50.6223 37.4468 50.4589 36.9384 50.1569 36.5126C49.855 36.0869 49.4292 35.7645 48.9375 35.5894V35.5894Z" fill="#304BAB"/>
<path d="M41.3438 37.125C41.7909 37.1237 42.2193 36.9454 42.5355 36.6293C42.8517 36.3131 43.0299 35.8846 43.0312 35.4375H39.6562C39.6576 35.8846 39.8358 36.3131 40.152 36.6293C40.4682 36.9454 40.8966 37.1237 41.3438 37.125V37.125Z" fill="#304BAB"/>
<path d="M49.7814 34.113V24.469C49.7815 23.3098 49.5427 22.1631 49.08 21.1003C48.6174 20.0375 47.9407 19.0815 47.0922 18.2918C46.2436 17.5021 45.2415 16.8957 44.1483 16.5105C43.0551 16.1252 41.8942 15.9693 40.7381 16.0525C38.5803 16.2487 36.5757 17.2511 35.1242 18.8596C33.6726 20.4682 32.8807 22.5648 32.9064 24.7314V34.113C32.9443 34.0953 33.1165 34.0286 33.3046 33.9611C33.6801 33.8214 34.0776 33.75 34.4783 33.7502H36.8889C36.1674 33.1189 35.5893 32.3405 35.1935 31.4673C34.7976 30.5942 34.5932 29.6464 34.5939 28.6877V24.469C34.5952 24.2925 34.651 24.1207 34.7537 23.9772C34.8564 23.8337 35.001 23.7255 35.1676 23.6674L42.7614 21.1361C42.8767 21.0979 42.999 21.0849 43.1198 21.098C43.2406 21.1111 43.3572 21.15 43.4617 21.2121L47.6804 23.7433C47.807 23.8174 47.9118 23.9234 47.9843 24.0508C48.0569 24.1781 48.0947 24.3224 48.0939 24.469V28.6877C48.0946 29.6464 47.8901 30.5942 47.4943 31.4673C47.0984 32.3405 46.5204 33.1189 45.7989 33.7502H48.2095C48.6101 33.75 49.0076 33.8214 49.3831 33.9611C49.5713 34.0312 49.7434 34.0953 49.7814 34.113Z" fill="#304BAB"/>
<path d="M38.8125 14.6644V11.6016L22.7812 6.92725L6.75 11.6016V23.6251C6.75163 25.4816 7.12078 27.3194 7.83617 29.0325C8.55155 30.7457 9.599 32.3003 10.9181 33.6066L22.7812 45.4951L30.375 37.9013C30.3904 37.017 30.6858 36.1603 31.2188 35.4544V24.4688C31.2186 22.224 31.9644 20.0427 33.339 18.268C34.7136 16.4933 36.639 15.2256 38.8125 14.6644V14.6644Z" fill="#304BAB"/>
</svg>
