<svg width="84" height="84" viewBox="0 0 84 84" fill="none" xmlns="http://www.w3.org/2000/svg">
<g opacity="0.05" clip-path="url(#clip0)">
<path d="M29.0767 38.7696L17.7689 38.7696C16.4226 38.7696 15.2781 38.2986 14.3357 37.3562C13.3938 36.4138 12.9223 35.2696 12.9223 33.923L12.9223 32.3084C12.9223 28.7409 14.1845 25.6954 16.7089 23.1711C19.233 20.6476 22.279 19.3854 25.8461 19.3854L29.0767 19.3854C29.9515 19.3854 30.7085 19.0655 31.3482 18.4264C31.9875 17.7868 32.3072 17.0299 32.3072 16.1548L32.3072 9.69273C32.3072 8.81786 31.9873 8.06022 31.3482 7.42069C30.7086 6.78205 29.9517 6.46166 29.0767 6.46166L25.8461 6.46167C22.3458 6.46167 19.0064 7.14381 15.8257 8.50614C12.6454 9.86936 9.89455 11.7121 7.57213 14.0345C5.24989 16.3559 3.40769 19.1069 2.04465 22.2876C0.681612 25.4679 3.9072e-06 28.8082 4.51915e-06 32.3082L1.07327e-05 67.8458C1.12037e-05 70.5396 0.941887 72.8268 2.82652 74.7121C4.71133 76.5964 7.00034 77.5385 9.69247 77.5385L29.0779 77.5385C31.7699 77.5385 34.0582 76.5964 35.9432 74.7121C37.8274 72.8268 38.7698 70.5395 38.7698 67.8458L38.7698 48.4621C38.7698 45.7689 37.8274 43.4817 35.9419 41.5961C34.0578 39.712 31.7686 38.7696 29.0767 38.7696Z" fill="black"/>
<path d="M81.1747 41.5961C79.2906 39.712 77.0021 38.7696 74.3095 38.7696L63.0018 38.7696C61.6563 38.7696 60.5107 38.2986 59.5699 37.3562C58.6272 36.4138 58.1565 35.2696 58.1565 33.923L58.1565 32.3084C58.1565 28.7409 59.4188 25.6954 61.9419 23.1711C64.4651 20.6476 67.5109 19.3854 71.0798 19.3854L74.3096 19.3854C75.1847 19.3854 75.9421 19.0655 76.5813 18.4264C77.2201 17.7868 77.5411 17.0299 77.5411 16.1548L77.5411 9.69273C77.5411 8.81786 77.2203 8.06022 76.5813 7.42069C75.9423 6.78205 75.1849 6.46166 74.3096 6.46166L71.0798 6.46167C67.5775 6.46167 64.2388 7.14381 61.0573 8.50614C57.8775 9.86936 55.1275 11.7121 52.8051 14.0345C50.4827 16.3559 48.6396 19.1069 47.2771 22.2876C45.9144 25.4679 45.2319 28.8082 45.2319 32.3082L45.2319 67.8458C45.2319 70.5396 46.1747 72.8268 48.0588 74.7121C49.9431 76.5964 52.2316 77.5385 54.924 77.5385L74.3084 77.5385C77.0011 77.5385 79.2894 76.5964 81.1735 74.7121C83.059 72.8268 83.9998 70.5395 83.9998 67.8458L83.9998 48.4621C84 45.7687 83.059 43.4817 81.1747 41.5961Z" fill="black"/>
</g>
<defs>
<clipPath id="clip0">
<rect width="84" height="84" fill="white"/>
</clipPath>
</defs>
</svg>
