<svg width="68" height="57" viewBox="0 0 68 57" fill="none" xmlns="http://www.w3.org/2000/svg">
<path d="M44.4617 25.9234H53.6157C54.7055 25.9234 55.632 25.5477 56.3949 24.796C57.1574 24.0443 57.5391 23.1317 57.5391 22.0576V20.7698C57.5391 17.9242 56.5173 15.4952 54.4738 13.4817C52.4304 11.4689 49.9646 10.4621 47.0769 10.4621H44.4617C43.7535 10.4621 43.1408 10.207 42.6229 9.69719C42.1053 9.18709 41.8466 8.58335 41.8466 7.8854V2.73109C41.8466 2.03328 42.1055 1.42897 42.6229 0.91887C43.1406 0.409475 43.7534 0.153931 44.4617 0.153931H47.0769C49.9105 0.153931 52.6139 0.698019 55.1887 1.78464C57.7633 2.87197 59.9901 4.34177 61.8702 6.19419C63.7501 8.04575 65.2414 10.24 66.3448 12.777C67.4482 15.3137 68 17.978 68 20.7696V49.1151C68 51.2637 67.2375 53.088 65.7119 54.5918C64.1861 56.0947 62.3331 56.8462 60.1537 56.8462H44.4607C42.2815 56.8462 40.4291 56.0947 38.9032 54.5918C37.3778 53.088 36.6149 51.2637 36.6149 49.1151V33.6543C36.6149 31.5061 37.3778 29.6818 38.9042 28.1779C40.4294 26.6751 42.2825 25.9234 44.4617 25.9234Z" fill="#000000"/>
<path d="M2.28726 28.1779C3.81249 26.6751 5.66506 25.9234 7.84484 25.9234H16.9986C18.0879 25.9234 19.0152 25.5477 19.7768 24.796C20.54 24.0443 20.921 23.1317 20.921 22.0576V20.7698C20.921 17.9242 19.8992 15.4952 17.8567 13.4817C15.8141 11.4689 13.3484 10.4621 10.4593 10.4621H7.84469C7.13633 10.4621 6.52315 10.207 6.00572 9.69719C5.48858 9.18709 5.22879 8.58335 5.22879 7.8854V2.73109C5.22879 2.03328 5.48844 1.42897 6.00572 0.91887C6.523 0.409475 7.13618 0.153931 7.84469 0.153931H10.4593C13.2945 0.153931 15.9973 0.698019 18.5728 1.78464C21.1469 2.87197 23.3731 4.34177 25.2531 6.19419C27.1332 8.04575 28.6252 10.24 29.7282 12.777C30.8313 15.3137 31.3838 17.978 31.3838 20.7696V49.1151C31.3838 51.2637 30.6206 53.088 29.0954 54.5918C27.57 56.0947 25.7174 56.8462 23.5378 56.8462H7.84569C5.66592 56.8462 3.81349 56.0947 2.28826 54.5918C0.761892 53.088 0.000284195 51.2637 0.000284195 49.1151V33.6543C0.000141144 31.506 0.761894 29.6818 2.28726 28.1779Z" fill="black"/>
</svg>
