<svg width="39" height="39" viewBox="0 0 39 39" fill="none" xmlns="http://www.w3.org/2000/svg"><g opacity=".8"><path d="M25.757 0H5.546c-.563 0-1.02.456-1.02 1.341v36.963c0 .24.457.696 1.02.696h27.908c.563 0 1.02-.456 1.02-.696V9.038c0-.484-.066-.64-.18-.755L26.191.179A.615.615 0 0025.757 0z" fill="#E9E9E0"/><path d="M26.116.105v8.252h8.252L26.116.105z" fill="#D9D7CA"/><path d="M13.59 23.208c-.242 0-.475-.079-.673-.227-.725-.544-.823-1.15-.777-1.562.127-1.133 1.529-2.32 4.168-3.529 1.048-2.296 2.044-5.124 2.638-7.487-.695-1.512-1.37-3.475-.878-4.626.173-.403.388-.712.79-.846.159-.053.56-.12.707-.12.351 0 .66.452.879.73.205.262.671.817-.26 4.738.939 1.939 2.269 3.914 3.543 5.266.913-.165 1.699-.25 2.339-.25 1.09 0 1.752.255 2.021.779.223.433.132.94-.272 1.504-.388.543-.922.83-1.546.83-.847 0-1.833-.535-2.932-1.592a33.372 33.372 0 00-6.148 1.965c-.583 1.236-1.14 2.231-1.66 2.96-.714 1-1.33 1.467-1.939 1.467zm1.854-3.57c-1.488.836-2.095 1.524-2.139 1.911-.007.064-.025.233.3.482.104-.033.71-.31 1.839-2.393zm9.497-3.094c.568.437.706.658 1.078.658.163 0 .627-.007.842-.307a1.1 1.1 0 00.16-.29c-.085-.044-.199-.136-.818-.136-.352 0-.794.016-1.262.075zm-5.202-4.583a49.664 49.664 0 01-1.862 5.267 34.803 34.803 0 014.524-1.406c-.94-1.092-1.88-2.456-2.662-3.861zm-.423-5.894c-.068.023-.926 1.224.067 2.24.66-1.473-.037-2.25-.067-2.24zM33.454 39H5.546a1.019 1.019 0 01-1.02-1.019v-10.82h29.947v10.82c0 .563-.456 1.019-1.019 1.019z" fill="#B8B8B8"/><path d="M12.107 36.91h-1.142v-7.016h2.018c.298 0 .593.047.885.142.292.096.554.238.785.429.232.19.42.42.563.69.142.27.214.572.214.91 0 .355-.06.677-.181.966a2.02 2.02 0 01-.505.728 2.276 2.276 0 01-.78.457 3.006 3.006 0 01-1.01.162h-.847v2.533zm0-6.15v2.78h1.048c.14 0 .277-.024.414-.072.137-.047.262-.125.376-.233.114-.108.206-.258.276-.452a2.142 2.142 0 00.057-1.114 1.141 1.141 0 00-.195-.428 1.154 1.154 0 00-.414-.343c-.178-.091-.413-.137-.705-.137h-.857v-.001zm10.331 2.447c0 .578-.062 1.071-.186 1.48-.124.41-.28.753-.471 1.03a2.42 2.42 0 01-.643.652 3.224 3.224 0 01-.69.357 2.85 2.85 0 01-.61.153 4.31 4.31 0 01-.41.032h-2.655v-7.017h2.113c.591 0 1.11.094 1.557.28a3.23 3.23 0 011.114.748c.296.31.516.665.662 1.06.146.398.22.806.22 1.225zm-3.39 2.866c.775 0 1.334-.247 1.676-.742.343-.496.514-1.213.514-2.152 0-.292-.035-.581-.104-.867a1.854 1.854 0 00-.405-.776 2.135 2.135 0 00-.814-.562c-.343-.142-.787-.214-1.333-.214h-.666v5.313h1.133zm6.209-5.313v2.209h2.932v.78h-2.932v3.162h-1.162v-7.017h4.389v.866h-3.227z" fill="#fff"/></g></svg>