<svg width="37" height="39" viewBox="0 0 37 39" fill="none" xmlns="http://www.w3.org/2000/svg"><g opacity=".8"><path d="M24.436 0H5.261c-.534 0-.966.456-.966 1.341v36.963c0 .24.432.696.966.696H31.74c.534 0 .966-.456.966-.696V9.038c0-.484-.061-.64-.17-.755L24.849.179A.569.569 0 0024.436 0z" fill="#E9E9E0"/><path d="M31.739 39H5.26c-.534 0-.966-.456-.966-1.019v-10.82h28.41v10.82c0 .563-.432 1.019-.966 1.019z" fill="#B8B8B8"/><path d="M24.777.105v8.252h7.829L24.776.105z" fill="#D9D7CA"/><path d="M11.486 36.91h-1.084v-7.016h1.915c.283 0 .563.047.84.142a2.22 2.22 0 011.278 1.119c.136.27.204.572.204.91 0 .355-.058.677-.172.966a2.025 2.025 0 01-.479.728 2.138 2.138 0 01-.74.457 2.718 2.718 0 01-.958.162h-.804v2.533zm0-6.15v2.78h.994c.132 0 .263-.024.393-.072a.982.982 0 00.357-.233c.108-.108.196-.258.262-.452a2.25 2.25 0 00.054-1.114 1.111 1.111 0 00-.578-.77c-.169-.092-.392-.138-.669-.138h-.813v-.001zm9.204-.866v7.017h-1.1l-2.61-4.837v4.837h-1.103v-7.017h1.102l2.61 4.836v-4.836h1.103zm6.505 3.399v2.713a1.99 1.99 0 01-.465.452 2.798 2.798 0 01-1.13.453 3.818 3.818 0 01-.6.047c-.398 0-.763-.076-1.097-.228a2.469 2.469 0 01-.876-.677 3.241 3.241 0 01-.588-1.123c-.141-.45-.212-.971-.212-1.561s.07-1.11.212-1.557c.142-.448.337-.82.588-1.118A2.509 2.509 0 0125 29.779c.361 0 .698.064 1.012.19.313.128.592.318.84.572l-.75.704a1.299 1.299 0 00-.497-.4 1.424 1.424 0 00-.579-.123 1.54 1.54 0 00-.636.133c-.203.089-.383.24-.542.452-.16.213-.285.486-.375.823a5.11 5.11 0 00-.145 1.238c.006.476.053.889.14 1.237.088.35.208.635.362.857.154.222.328.387.524.495.195.108.402.162.619.162a3.244 3.244 0 00.6-.062 2.05 2.05 0 00.321-.09.46.46 0 00.226-.162v-1.733h-1.13v-.78h2.205z" fill="#fff"/><path d="M12.508 13.232c1.667 0 3.019-1.425 3.019-3.182s-1.352-3.182-3.019-3.182-3.019 1.425-3.019 3.182 1.352 3.182 3.019 3.182zM4.295 27.16h28.41V19.5l-6.607-6.616-6.937 8.009-3.623-3.819L4.295 27.161z" fill="#B8B8B8"/></g></svg>