<svg width="39" height="39" viewBox="0 0 39 39" fill="none" xmlns="http://www.w3.org/2000/svg"><g opacity=".8"><path d="M25.757 0H5.546c-.563 0-1.02.456-1.02 1.341v36.963c0 .24.457.696 1.02.696h27.908c.563 0 1.02-.456 1.02-.696V9.038c0-.484-.066-.64-.18-.755L26.191.179A.615.615 0 0025.757 0z" fill="#E9E9E0"/><path d="M26.116.105v8.252h8.252L26.116.105z" fill="#D9D7CA"/><path d="M33.454 39H5.546a1.019 1.019 0 01-1.02-1.019v-10.82h29.947v10.82c0 .563-.456 1.019-1.019 1.019z" fill="#B8B8B8"/><path d="M11.896 30.76v2.21h2.933v.78h-2.933v2.295h3.228v.866h-4.39v-7.017h4.39v.866h-3.228zm8.008 2.742l1.78 3.409h-1.323l-1.114-2.647h-.095l-1.2 2.647h-1.323l1.78-3.41-1.895-3.608h1.305l1.237 2.857h.096l1.342-2.857H21.8l-1.895 3.609zm4.656-2.742v2.209h2.933v.78H24.56v2.295h3.228v.867h-4.39v-7.017h4.39v.866H24.56z" fill="#fff"/><path d="M23.33 22.286a.697.697 0 01-.665-.905l3.482-11.143a.697.697 0 011.33.416l-3.482 11.143a.696.696 0 01-.665.489zm-3.134-7.661a1.045 1.045 0 100-2.09 1.045 1.045 0 000 2.09zm0 4.875a1.045 1.045 0 100-2.09 1.045 1.045 0 000 2.09zm-3.83 1.393h-1.393a4.88 4.88 0 01-4.875-4.875 4.88 4.88 0 014.875-4.875h1.393a.697.697 0 010 1.393h-1.393a3.486 3.486 0 00-3.482 3.482 3.486 3.486 0 003.482 3.482h1.393a.697.697 0 010 1.393z" fill="#B8B8B8"/></g></svg>