<svg width="52" height="52" viewBox="0 0 52 52" fill="none" xmlns="http://www.w3.org/2000/svg"><g clip-path="url(#clip0)" fill="#304BAB"><path d="M33.674 12.87h1.53V9.81h-1.53V0h-3.059v9.81h-1.53v3.06h1.53v4.024l3.059-.916V12.87zM14.212 31.378l2.93-.878.878 2.93-2.93.878-.878-2.93z"/><path d="M47.954 37.483l-5.836-19.481a4.334 4.334 0 00-2.109-2.588 4.334 4.334 0 00-3.321-.339l-3.014.903v3.519c0 4.216-3.43 7.646-7.647 7.646v-3.058a4.593 4.593 0 004.588-4.588v-2.603l-7.647 2.29v-3.996l1.437.616 1.205-2.811-5.7-2.443v9.55L6.972 23.976a4.333 4.333 0 00-2.588 2.11 4.333 4.333 0 00-.338 3.32l5.835 19.482a4.333 4.333 0 002.11 2.587 4.339 4.339 0 003.32.34l29.715-8.902a4.333 4.333 0 002.588-2.109 4.333 4.333 0 00.339-3.321zM15.239 45.45l-.878-2.93 2.93-.878.878 2.93-2.93.878zm.472-8.137a2.778 2.778 0 01-2.126-.217 2.774 2.774 0 01-1.35-1.657L11.203 32a2.774 2.774 0 01.217-2.126 2.774 2.774 0 011.657-1.35l3.44-1.03a2.774 2.774 0 012.126.216 2.774 2.774 0 011.35 1.657l1.03 3.44a2.796 2.796 0 01-1.873 3.476l-3.44 1.031zm5.388 6.382l-.878-2.93 2.93-.878.878 2.93-2.93.878zm5.86-1.756l-.878-2.93 2.93-.877.878 2.93-2.93.877zm5.86-1.755l-.877-2.93 2.93-.878.877 2.93-2.93.878zm5.86-1.756l-.877-2.93 2.93-.877.878 2.93-2.93.877z"/></g><defs><clipPath id="clip0"><path fill="#fff" d="M0 0h52v52H0z"/></clipPath></defs></svg>