<svg width="50" height="50" viewBox="0 0 50 50" fill="none" xmlns="http://www.w3.org/2000/svg"><g clip-path="url(#clip0)" fill="#304BAB"><path d="M17.676 35.303h14.648v-8.818H17.676v8.818zM25 29.425c.809 0 1.465.658 1.465 1.47 0 .811-.656 1.469-1.465 1.469a1.467 1.467 0 01-1.465-1.47c0-.811.656-1.47 1.465-1.47z"/><path d="M45.282 5.91c-7.715 0-12.385-1.442-14.944-2.652C27.73 2.027 26.748.788 26.66.671a1.418 1.418 0 00-2.333-.113c-.086.096-1.271 1.382-4.137 2.656-2.767 1.23-7.697 2.696-15.473 2.696-.809 0-1.464.658-1.464 1.47v23.514c0 5.981 3.772 11.193 10.908 15.07C19.01 48.6 24.423 50 25 50c.514 0 5.872-1.336 10.839-4.035 7.136-3.879 10.908-9.09 10.908-15.07V7.38c0-.812-.656-1.47-1.465-1.47zM35.254 36.773c0 .812-.656 1.47-1.465 1.47H16.211a1.467 1.467 0 01-1.465-1.47V25.016c0-.812.656-1.47 1.465-1.47h1.47v-4.458c0-3.892 3.098-7.3 7.363-7.3 4.012 0 7.276 3.275 7.276 7.3 0 .812-.656 1.47-1.465 1.47a1.467 1.467 0 01-1.465-1.47c0-2.297-1.81-4.36-4.434-4.36-2.396 0-4.346 1.956-4.346 4.36v4.458h13.179c.809 0 1.465.658 1.465 1.47v11.757z"/></g><defs><clipPath id="clip0"><path fill="#fff" d="M0 0h50v50H0z"/></clipPath></defs></svg>