<svg width="40" height="40" viewBox="0 0 40 40" fill="none" xmlns="http://www.w3.org/2000/svg"><g clip-path="url(#clip0)"><path d="M38.047 5.03L34.97 1.953A6.658 6.658 0 0030.257 0H4.583A4.583 4.583 0 000 4.583v30.834A4.583 4.583 0 004.583 40h30.834A4.583 4.583 0 0040 35.417V9.743a6.658 6.658 0 00-1.953-4.713zm-31.38 5.387V6.25c0-.69.56-1.25 1.25-1.25h17.5c.69 0 1.25.56 1.25 1.25v4.167c0 .69-.56 1.25-1.25 1.25h-17.5c-.69 0-1.25-.56-1.25-1.25zM20 33.333a7.5 7.5 0 11.001-15.001A7.5 7.5 0 0120 33.333z" fill="#304BAB"/></g><defs><clipPath id="clip0"><path fill="#fff" d="M0 0h40v40H0z"/></clipPath></defs></svg>