<svg width="56" height="56" viewBox="0 0 56 56" fill="none" xmlns="http://www.w3.org/2000/svg">
<path d="M9.9873 49H46.0128L42.5128 45.5H13.4873L9.9873 49ZM40.2501 46.375H42.0001V48.125H40.2501V46.375ZM36.7501 46.375H38.5001V48.125H36.7501V46.375ZM21.0001 46.375H35.0001V48.125H21.0001V46.375ZM17.5001 46.375H19.2501V48.125H17.5001V46.375ZM14.0001 46.375H15.7501V48.125H14.0001V46.375Z" fill="#304BAB"/>
<path d="M8.75 50.75H47.25V52.5H8.75V50.75Z" fill="#304BAB"/>
<path d="M16.625 43.75H14.875V42C14.875 41.7679 14.7828 41.5454 14.6187 41.3813C14.4546 41.2172 14.2321 41.125 14 41.125H8.75C8.05381 41.125 7.38613 40.8484 6.89384 40.3562C6.40156 39.8639 6.125 39.1962 6.125 38.5C6.125 37.8038 6.40156 37.1361 6.89384 36.6438C7.38613 36.1516 8.05381 35.875 8.75 35.875H14C14.2321 35.875 14.4546 35.7828 14.6187 35.6187C14.7828 35.4546 14.875 35.2321 14.875 35V33.25H16.625V35C16.625 35.6962 16.3484 36.3639 15.8562 36.8562C15.3639 37.3484 14.6962 37.625 14 37.625H8.75C8.51794 37.625 8.29538 37.7172 8.13128 37.8813C7.96719 38.0454 7.875 38.2679 7.875 38.5C7.875 38.7321 7.96719 38.9546 8.13128 39.1187C8.29538 39.2828 8.51794 39.375 8.75 39.375H14C14.6962 39.375 15.3639 39.6516 15.8562 40.1438C16.3484 40.6361 16.625 41.3038 16.625 42V43.75Z" fill="#304BAB"/>
<path d="M18.4827 26.1624C18.4766 26.1939 18.4749 26.2228 18.4688 26.2543H37.5315C37.5262 26.2237 37.5245 26.1957 37.5184 26.1668C37.3269 25.1664 36.8884 24.2297 36.2426 23.4421C33.7175 24.8121 30.871 25.4795 28.0001 25.3749C25.1286 25.4773 22.2821 24.8074 19.7576 23.4351C19.1117 24.2235 18.6734 25.1611 18.4827 26.1624V26.1624Z" fill="#304BAB"/>
<path d="M21.1182 22.197C23.2698 23.2019 25.6262 23.6908 28 23.625C30.3735 23.6911 32.7296 23.2024 34.881 22.1978C34.5978 22.0086 34.2993 21.8432 33.9886 21.7035L31.262 20.4907C31.0129 21.1546 30.5671 21.7266 29.9842 22.1304C29.4013 22.5341 28.7091 22.7505 28 22.7505C27.291 22.7505 26.5988 22.5341 26.0159 22.1304C25.433 21.7266 24.9872 21.1546 24.738 20.4907L22.0115 21.7C21.7004 21.8405 21.4016 22.0067 21.1182 22.197V22.197Z" fill="#304BAB"/>
<path d="M26.9184 7.87487L30.2337 6.21674C30.398 6.13475 30.5839 6.10652 30.7652 6.13605C30.9464 6.16557 31.1137 6.25135 31.2435 6.38125L32.7371 7.87487H33.1746C32.9711 6.64985 32.3395 5.53679 31.3922 4.73386C30.4449 3.93093 29.2434 3.49023 28.0016 3.49023C26.7598 3.49023 25.5583 3.93093 24.611 4.73386C23.6637 5.53679 23.0321 6.64985 22.8286 7.87487H26.9184Z" fill="#304BAB"/>
<path d="M28.0002 17.5C28.7372 17.4994 29.4658 17.3433 30.1383 17.0417C30.8108 16.7401 31.412 16.3 31.9027 15.75H29.7502C29.5868 15.7509 29.4265 15.706 29.2873 15.6205C29.1481 15.535 29.0357 15.4122 28.9627 15.2661L28.3344 14H27.6659L27.0377 15.2661C26.9646 15.4122 26.8522 15.535 26.713 15.6205C26.5738 15.706 26.4135 15.7509 26.2502 15.75H24.0977C24.5883 16.3 25.1895 16.7401 25.862 17.0417C26.5345 17.3433 27.2631 17.4994 28.0002 17.5V17.5Z" fill="#304BAB"/>
<path d="M22.75 12.2496C22.7515 12.8461 22.8551 13.438 23.0563 13.9996H25.7092L26.3419 12.7334C26.4146 12.588 26.5263 12.4657 26.6647 12.3802C26.803 12.2947 26.9624 12.2495 27.125 12.2496H28.875C29.0383 12.2487 29.1987 12.2935 29.3379 12.379C29.477 12.4646 29.5895 12.5873 29.6625 12.7334L30.2908 13.9996H32.9438C33.1449 13.438 33.2485 12.8461 33.25 12.2496V9.62458H32.375C32.143 9.62453 31.9204 9.53231 31.7564 9.3682L30.45 8.06445L27.5161 9.53708C27.3943 9.59611 27.2604 9.62606 27.125 9.62458H22.75V12.2496ZM30.625 10.4996H32.375V12.2496H30.625V10.4996ZM23.625 10.4996H25.375V12.2496H23.625V10.4996Z" fill="#304BAB"/>
<path d="M26.25 19.02V19.2501C26.25 19.7143 26.4344 20.1594 26.7626 20.4876C27.0908 20.8158 27.5359 21.0001 28 21.0001C28.4641 21.0001 28.9092 20.8158 29.2374 20.4876C29.5656 20.1594 29.75 19.7143 29.75 19.2501V19.02C28.6035 19.3269 27.3965 19.3269 26.25 19.02Z" fill="#304BAB"/>
<path d="M24.5 18.305V18.6813L21.2975 20.1075C20.4537 20.4778 19.6832 20.9965 19.0225 21.6387C18.8475 21.8137 18.6725 21.9975 18.515 22.1813C17.6224 23.2234 17.0189 24.4816 16.765 25.83C16.7387 25.9788 16.7213 26.11 16.7038 26.25H9.625V7.875C9.625 7.64294 9.71719 7.42038 9.88128 7.25628C10.0454 7.09219 10.2679 7 10.5 7H21.2363C21.0776 7.56974 20.9981 8.15859 21 8.75V12.25C21.0017 13.4775 21.3259 14.6829 21.9402 15.7456C22.5545 16.8083 23.4372 17.6909 24.5 18.305Z" fill="#304BAB"/>
<path d="M46.375 7.875V26.25H39.2962C39.2787 26.11 39.2613 25.9788 39.235 25.83C38.9822 24.4855 38.3819 23.2306 37.4937 22.19C37.3275 21.9975 37.1525 21.8138 36.9863 21.6562C36.3261 21.0047 35.552 20.4798 34.7025 20.1075L31.5 18.6813V18.305C32.5628 17.6909 33.4455 16.8083 34.0598 15.7456C34.6741 14.6829 34.9983 13.4775 35 12.25V8.75C35.0019 8.15859 34.9224 7.56974 34.7637 7H45.5C45.7321 7 45.9546 7.09219 46.1187 7.25628C46.2828 7.42038 46.375 7.64294 46.375 7.875V7.875Z" fill="#304BAB"/>
<path d="M24.5 33.25H31.5V36.75H24.5V33.25Z" fill="#304BAB"/>
<path d="M20.125 38.5H35.875V40.25H20.125V38.5Z" fill="#304BAB"/>
<path d="M9.625 30.625C9.625 30.8571 9.71719 31.0796 9.88128 31.2437C10.0454 31.4078 10.2679 31.5 10.5 31.5H45.5C45.7321 31.5 45.9546 31.4078 46.1187 31.2437C46.2828 31.0796 46.375 30.8571 46.375 30.625V28H9.625V30.625ZM41.125 28.875H42.875V30.625H41.125V28.875Z" fill="#304BAB"/>
</svg>
