<svg width="42" height="42" viewBox="0 0 42 42" fill="none" xmlns="http://www.w3.org/2000/svg">
<path d="M5.00391 39.375H9.92578V42H12.3867V39.375H29.6133V42H32.0742V39.375H36.9961V34.4531H5.00391V39.375Z" fill="#304BAB"/>
<path d="M14.8477 7.38281H27.1523V12.3047H14.8477V7.38281Z" fill="#304BAB"/>
<path d="M5.00391 0V31.9922H36.9961V0H5.00391ZM17.3086 29.5312H14.8477V27.0703H17.3086V29.5312ZM17.3086 24.6094H14.8477V22.1484H17.3086V24.6094ZM17.3086 19.6875H14.8477V17.2266H17.3086V19.6875ZM22.2305 29.5312H19.7695V27.0703H22.2305V29.5312ZM22.2305 24.6094H19.7695V22.1484H22.2305V24.6094ZM22.2305 19.6875H19.7695V17.2266H22.2305V19.6875ZM27.1523 29.5312H24.6914V27.0703H27.1523V29.5312ZM27.1523 24.6094H24.6914V22.1484H27.1523V24.6094ZM27.1523 19.6875H24.6914V17.2266H27.1523V19.6875ZM29.6133 14.7656H12.3867V4.92188H29.6133V14.7656Z" fill="#304BAB"/>
</svg>
