<svg width="50" height="50" viewBox="0 0 50 50" fill="none" xmlns="http://www.w3.org/2000/svg">
<path d="M6.25 40.625H7.8125V43.75H6.25V46.875H10.1562V37.5H6.25V40.625Z" fill="#304BAB"/>
<path d="M5.88379 20.4606C6.92676 23.5489 9.84551 25.7809 13.2814 25.7809C16.7174 25.7809 19.6361 23.5481 20.6791 20.4606C19.9174 18.4247 18.1463 16.9239 16.0307 16.4966C15.4213 17.4122 14.4025 17.9685 13.2814 17.9685C12.1611 17.9685 11.1432 17.4138 10.5338 16.4989C8.39629 16.9419 6.64082 18.4372 5.88379 20.4606V20.4606ZM12.5002 19.531H14.0627V21.0934H12.5002V19.531ZM12.5002 22.6559H14.0627V24.2184H12.5002V22.6559Z" fill="#304BAB"/>
<path d="M9.375 7.8125H9.45313C9.65078 6.89922 10.2406 6.11484 11.1016 5.68438L11.8719 5.29922L12.2703 5.69766C13.1313 6.55781 14.275 7.03125 15.4914 7.03125H17.1875V7.8125C17.3961 7.8125 17.5953 7.84844 17.7883 7.9C17.9023 7.50625 17.9688 7.09766 17.9688 6.6875V6.37656C17.9688 5.23594 17.2414 4.22734 16.1594 3.86562L15.9844 3.80781L15.7477 3.57188C14.9562 2.77969 13.9031 2.34375 12.7844 2.34375C10.4734 2.34375 8.59375 4.22344 8.59375 6.53438V6.6875C8.59375 7.09766 8.66016 7.50625 8.775 7.90078C8.96719 7.84844 9.16641 7.8125 9.375 7.8125Z" fill="#304BAB"/>
<path d="M9.375 10.9375V9.375C8.94453 9.375 8.59375 9.725 8.59375 10.1562C8.59375 10.5875 8.94453 10.9375 9.375 10.9375Z" fill="#304BAB"/>
<path d="M25.6724 19.5312H33.8919L34.3747 18.5656C35.0411 17.2336 36.3794 16.4062 37.8685 16.4062H42.9685V10.9375H23.6177C25.0021 12.9711 25.781 15.4039 25.781 17.9688C25.781 18.4992 25.7372 19.018 25.6724 19.5312Z" fill="#304BAB"/>
<path d="M12.0901 14.6382L11.7886 15.5421C12.1026 16.0726 12.6573 16.4062 13.2815 16.4062C13.9058 16.4062 14.4605 16.0726 14.7737 15.5421L14.4722 14.6382C14.0948 14.7601 13.6995 14.8437 13.2815 14.8437C12.8636 14.8437 12.4683 14.7601 12.0901 14.6382Z" fill="#304BAB"/>
<path d="M15.625 10.9377V8.59395H15.4914C14.0563 8.59395 12.6961 8.10254 11.6031 7.2002C11.1875 7.48926 10.9375 7.96191 10.9375 8.47988V10.9377C10.9375 12.2299 11.9891 13.2814 13.2812 13.2814C14.5734 13.2814 15.625 12.2299 15.625 10.9377Z" fill="#304BAB"/>
<path d="M17.1875 9.375V10.9375C17.618 10.9375 17.9688 10.5875 17.9688 10.1562C17.9688 9.725 17.618 9.375 17.1875 9.375Z" fill="#304BAB"/>
<path d="M19.5312 28.7773V31.25C19.5312 32.5422 18.4797 33.5938 17.1875 33.5938H16.4062V44.5312H45.3125C46.6047 44.5312 47.6562 43.4797 47.6562 42.1875V24.2188H24.0898C22.993 26.107 21.4195 27.6805 19.5312 28.7773ZM37.5 39.0625H45.3125V42.1875H37.5V39.0625Z" fill="#304BAB"/>
<path d="M24.2188 17.9689C24.2188 14.1963 22.3 10.7479 19.157 8.74707C19.1461 8.77676 19.1312 8.80488 19.1195 8.83379C19.3789 9.21113 19.5312 9.66582 19.5312 10.1564C19.5312 10.4135 19.4797 10.6564 19.4031 10.8877C21.4711 12.6713 22.6562 15.2104 22.6562 17.9689C22.6562 23.1385 18.4508 27.3439 13.2812 27.3439C8.11172 27.3439 3.90625 23.1385 3.90625 17.9689C3.90625 15.2104 5.09141 12.6713 7.15937 10.8877C7.08281 10.6564 7.03125 10.4135 7.03125 10.1564C7.03125 9.66582 7.18359 9.21113 7.44297 8.83379C7.43125 8.8041 7.41641 8.77676 7.40547 8.74707C4.2625 10.7479 2.34375 14.1963 2.34375 17.9689C2.34375 24.0002 7.25 28.9064 13.2812 28.9064C19.3125 28.9064 24.2188 24.0002 24.2188 17.9689Z" fill="#304BAB"/>
<path d="M45.3124 17.9688H37.8686C36.9749 17.9688 36.1718 18.4656 35.7726 19.2641L34.8577 21.0938H25.3694C25.2312 21.6281 25.0655 22.1516 24.8608 22.6562H47.6561V20.3125C47.6561 19.0203 46.6046 17.9688 45.3124 17.9688ZM39.8436 21.0938H38.2811V19.5312H39.8436V21.0938ZM42.9686 21.0938H41.4061V19.5312H42.9686V21.0938ZM46.0936 21.0938H44.5311V19.5312H46.0936V21.0938Z" fill="#304BAB"/>
<path d="M11.7188 46.875C11.7188 47.3062 12.0695 47.6562 12.5 47.6562H14.0625C14.493 47.6562 14.8438 47.3062 14.8438 46.875V33.5938H11.7188V46.875Z" fill="#304BAB"/>
<path d="M8.59375 29.5483V31.2499C8.59375 31.6812 8.94453 32.0312 9.375 32.0312H17.1875C17.618 32.0312 17.9688 31.6812 17.9688 31.2499V29.5483C16.5195 30.1374 14.9391 30.4687 13.2812 30.4687C11.6234 30.4687 10.043 30.1374 8.59375 29.5483Z" fill="#304BAB"/>
</svg>
