<svg width="47" height="47" viewBox="0 0 47 47" fill="none" xmlns="http://www.w3.org/2000/svg">
<g clip-path="url(#clip0)">
<path d="M45.0982 27.8443C44.1965 27.8346 42.4028 29.0078 41.918 29.3083C40.1631 30.3749 37.7489 32.0231 36.1782 33.3223C36.0716 33.4096 35.9261 33.5259 35.8098 33.6132C35.102 34.1562 34.3361 34.544 33.4731 34.7961C28.7417 36.1728 21.7414 36.7546 21.7414 36.7546L21.3342 36.8031C21.024 36.8418 20.7428 36.6382 20.6749 36.328C20.5974 35.9886 20.8301 35.659 21.1694 35.6008L31.5049 33.875C32.6393 33.6714 33.4828 32.4982 33.2792 31.2475C33.0756 30.0064 31.8928 29.1629 30.7584 29.3665L21.4894 29.861C20.8591 29.8901 19.8411 29.8028 19.2206 29.6574C13.1317 28.2418 9.874 30.1616 8.13849 31.0729C7.69249 30.4136 6.90714 30.0161 6.06363 30.1325L2.08842 30.6754C0.769817 30.8596 -0.160962 32.0716 0.0232543 33.3999L1.27399 42.5623C1.45821 43.8809 2.67016 44.8116 3.99846 44.6274L7.97366 44.0845C8.81718 43.9681 9.46679 43.3864 9.71887 42.6301L27.3164 42.252C29.2846 42.3393 31.0977 41.9708 32.7654 40.9237L33.2501 40.6134L45.9805 31.6838C46.6107 31.2475 47.0276 30.53 46.9985 29.764C46.9501 28.8429 46.3683 27.854 45.0982 27.8443ZM5.29767 42.3587C4.54141 42.4071 3.89181 41.8351 3.84333 41.0885C3.79485 40.3323 4.36689 39.6827 5.11345 39.6342C5.86971 39.5857 6.51932 40.1577 6.5678 40.9043C6.62597 41.6509 6.05393 42.3005 5.29767 42.3587Z" fill="#1F4DF1"/>
<path d="M35.3834 30.8986C35.4221 31.1604 35.4415 31.4125 35.4415 31.6646C35.5773 31.5579 35.7033 31.4416 35.8391 31.3349C37.1286 30.2587 39.7949 28.5232 41.3074 27.5924C41.7631 27.3112 42.2479 27.0398 42.7714 26.7974C42.054 26.3708 41.3268 26.3901 40.5899 26.7489C39.1356 27.4567 36.4887 29.0177 35.141 29.9C35.1313 29.9193 35.1313 29.9387 35.1216 29.9581C35.2379 30.2781 35.3349 30.5787 35.3834 30.8986Z" fill="#1F4DF1"/>
<path d="M36.9248 25.9145C36.0328 26.3508 34.0161 27.1846 33.1338 27.747C33.541 27.97 33.9191 28.2608 34.2391 28.6002C34.2973 28.5517 34.3457 28.5032 34.4136 28.4645L35.0535 28.0378C35.994 27.4076 38.0301 26.5156 39.0772 25.9436C38.3694 25.5267 37.6519 25.5558 36.9248 25.9145Z" fill="#1F4DF1"/>
<path d="M24.1941 3.1495C23.5833 2.08298 22.0417 2.08298 21.4212 3.1495L10.8239 21.513C10.213 22.5795 10.979 23.9078 12.2103 23.9078H33.4147C34.646 23.9078 35.412 22.5795 34.8011 21.513L24.1941 3.1495ZM22.827 8.80204C23.5057 8.80204 24.0584 9.36439 24.039 10.0431L23.8354 17.0142C23.816 17.5669 23.37 18.0032 22.827 18.0032C22.2744 18.0032 21.8284 17.5669 21.8187 17.0142L21.6248 10.0431C21.5957 9.36439 22.1483 8.80204 22.827 8.80204ZM22.8173 21.416C22.1193 21.416 21.5569 20.8537 21.5569 20.1556C21.5569 19.4575 22.1193 18.8952 22.8173 18.8952C23.5154 18.8952 24.0778 19.4575 24.0778 20.1556C24.0778 20.8537 23.5057 21.416 22.8173 21.416Z" fill="#1F4DF1"/>
</g>
<defs>
<clipPath id="clip0">
<rect width="47" height="47" fill="white"/>
</clipPath>
</defs>
</svg>
