<svg width="48" height="48" viewBox="0 0 48 48" fill="none" xmlns="http://www.w3.org/2000/svg">
<g clip-path="url(#clip0)">
<path d="M42 2H6C2.692 2 0 4.692 0 8V40C0 43.308 2.692 46 6 46H42C45.308 46 48 43.308 48 40V8C48 4.692 45.308 2 42 2ZM42 42H6C4.898 42 4 41.104 4 40V12H44V40C44 41.104 43.102 42 42 42Z" fill="#304BAB"/>
<path d="M32 16.04H34C35.104 16.04 36 16.936 36 18.04V30.04C36 31.144 35.104 32.04 34 32.04H32C30.896 32.04 30 31.144 30 30.04V18.04C30 16.936 30.896 16.04 32 16.04Z" fill="#304BAB"/>
<path d="M12 27.22C12 29.88 14.16 32.04 16.82 32.04H20.8C20.58 32.74 20.38 33.68 20.38 34.78C20.38 38.02 22.12 39.5 23.72 39.5C26.12 39.5 26.12 36.94 26.12 35.7C26.12 34.18 27.44 32.82 28.5 31.98C28.18 31.4 28 30.74 28 30.04V18.04C28 17.86 28.02 17.68 28.04 17.5C26.3 16.78 23.52 16.04 19.52 16.04H18C15.6 16.04 13.5 17.78 13.14 20.08L13.22 20.1C12.24 22.14 12 27.16 12 27.22V27.22Z" fill="#304BAB"/>
</g>
<defs>
<clipPath id="clip0">
<rect width="48" height="48" fill="white"/>
</clipPath>
</defs>
</svg>
