<svg width="31" height="31" viewBox="0 0 31 31" fill="none" xmlns="http://www.w3.org/2000/svg"><g clip-path="url(#clip0)" fill="#304BAB"><path d="M27.19 3.081C19.777 4.818 16.017.721 14.805-1 13.592.718 9.832 4.815 2.417 3.082 1.84 5.839-.162 19.453 14.804 25.996 29.77 19.453 27.768 5.839 27.191 3.08zM8.459 20.024a.49.49 0 01-.694-.026 17.56 17.56 0 01-4.332-8.547 21.582 21.582 0 01-.28-6.696.49.49 0 01.558-.43c.723.106 1.452.16 2.183.162 3.216.071 6.317-1.2 8.558-3.507a.506.506 0 01.706 0 11.255 11.255 0 004.712 2.932.491.491 0 11-.299.935 12.194 12.194 0 01-4.767-2.834 12.553 12.553 0 01-8.91 3.456 16.022 16.022 0 01-1.815-.107 20.551 20.551 0 00.317 5.893 16.586 16.586 0 004.09 8.075.491.491 0 01-.027.694zm8.319-2.814h1.963a.49.49 0 110 .982h-1.963a.49.49 0 110-.982zm-4.07-1.616a.49.49 0 01-.695 0L10.54 14.12a.49.49 0 01.694-.694l1.125 1.126 6.034-6.034a.49.49 0 01.694.694l-6.38 6.38zM10.395 17.7c0-.271.22-.491.49-.491h3.927a.49.49 0 010 .982h-3.926a.49.49 0 01-.491-.491zm4.614 7.125a.49.49 0 01-.415 0 24.831 24.831 0 01-3.25-1.809.491.491 0 11.542-.817 23.753 23.753 0 002.915 1.638C25.436 18.771 25.944 9.585 25.543 5.36c-.607.071-1.218.107-1.83.108a.49.49 0 110-.981 15.35 15.35 0 002.194-.164.49.49 0 01.558.427c.507 4.197.403 14.553-11.455 20.076zM4.928 22.507h-.982v-.982a.49.49 0 10-.982 0v.982h-.981a.49.49 0 100 .982h.981v.982a.49.49 0 00.982 0v-.982h.982a.49.49 0 100-.982zm24.051 2.454h-.982v-.981a.49.49 0 00-.982 0v.981h-.982a.49.49 0 000 .982h.982v.982a.49.49 0 00.982 0v-.982h.982a.49.49 0 000-.982zM25.052-.071h.49v.49a.49.49 0 10.982 0v-.49h.491a.49.49 0 000-.982h-.49v-.49a.49.49 0 00-.982 0v.49h-.491a.49.49 0 000 .982z"/></g><defs><clipPath id="clip0"><path fill="#fff" d="M0 0h31v31H0z"/></clipPath></defs></svg>