<svg width="25" height="26" viewBox="0 0 25 26" fill="none" xmlns="http://www.w3.org/2000/svg"><path d="M5.618 16.339l1.297 1.348 2.215-2.325c-2.128-2.638-2.581-6.123-1.592-9.074l2.947 3.065c-.025 3.081 2.387 5.774 5.535 5.774 1.847 0 3.486-.947 4.492-2.398l-3.346-3.48-2.32 2.414-8.629-8.974v2.035H4.704V.002h4.54v1.574H7.287l7.559 7.861 2.32-2.413 4.08 4.243c.669-1.99.262-4.329-1.313-5.966-2.017-2.098-5.185-2.232-7.349-.444l-2.446-2.544c3.524-3.186 8.871-3.041 12.232.454C24.066 4.53 25 6.877 25 9.37c0 5.15-4.029 9.34-8.98 9.34a8.712 8.712 0 01-5.825-2.231l-2.21 2.32 1.302 1.354-5.618 5.843L0 22.182l5.618-5.843z" fill="#304BAB"/><path d="M12.868 21.277h12.106v1.574H12.868v-1.574zm-4.539 3.148h9.079v1.573h-9.08v-1.573z" fill="#304BAB"/></svg>