<svg width="26" height="27" viewBox="0 0 26 27" fill="none" xmlns="http://www.w3.org/2000/svg"><path d="M7.617 6.697h5.078a.76.76 0 00.614-.321c1.109-1.539 1.671-3.24 1.671-5.058V.791c0-.437-.34-.791-.761-.791-1.411 0-3.251.949-4.063 1.41C9.345.95 7.504 0 6.094 0c-.42 0-.762.354-.762.791v.527c0 1.818.563 3.52 1.672 5.058a.758.758 0 00.613.321zm3.129 11.627v2.24c.389-.219.62-.622.682-1.003.044-.273.062-.927-.682-1.237zm-1.652-2.855c-.054.294.015.568.174.698.063.05.133.1.208.15v-1.49a1.027 1.027 0 00-.382.642z" fill="#304BAB"/><path d="M14.32 19.951v-3.924c0-1.097.76-2.02 1.806-2.195a1.77 1.77 0 001.27-.942c-1.091-1.567-2.376-3.026-3.65-4.374a.748.748 0 00-.543-.237H7.11a.75.75 0 00-.543.237C3.319 11.951 0 16.113 0 20.936v.056C.007 24.305 2.645 27 5.881 27h8.55c.905 0 1.763-.21 2.53-.587-1.651-1.655-2.64-3.968-2.64-6.462zm-1.64-.172a2.785 2.785 0 01-.816 1.564 2.5 2.5 0 01-1.118.622v.5a.647.647 0 01-.635.659.647.647 0 01-.635-.66v-.437c-.531-.046-.969-.192-1.591-.614A.675.675 0 017.7 20.5a.62.62 0 01.879-.19c.36.244.59.348.896.39v-2.895a4.778 4.778 0 01-.991-.6c-.536-.438-.781-1.196-.639-1.98.155-.856.728-1.537 1.496-1.777l.134-.039v-.436c0-.364.285-.66.635-.66.35 0 .635.296.635.66v.363c.637.11 1.086.435 1.303.693a.677.677 0 01-.061.93.619.619 0 01-.893-.06.926.926 0 00-.35-.21v2.231c.12.047.24.092.358.135 1.157.424 1.776 1.494 1.577 2.724z" fill="#304BAB"/><path d="M25.475 15.394a3.3 3.3 0 01-2.417-1.847.383.383 0 00-.345-.219H19.13a.383.383 0 00-.345.219 3.3 3.3 0 01-2.416 1.847.636.636 0 00-.525.633v3.924c0 3.18 1.954 5.994 4.837 7.008a.726.726 0 00.482 0C24.046 25.945 26 23.131 26 19.951v-3.924a.636.636 0 00-.525-.633zm-1.86 3.857l-2.873 2.983a.746.746 0 01-1.077 0l-1.436-1.491a.813.813 0 010-1.119.742.742 0 011.077 0l.898.932 2.334-2.423a.742.742 0 011.077 0 .813.813 0 010 1.118z" fill="#304BAB"/></svg>