<svg width="84" height="72" viewBox="0 0 84 72" fill="none" xmlns="http://www.w3.org/2000/svg"><path d="M54.923 32.77h11.308c1.346 0 2.49-.471 3.433-1.414.942-.942 1.414-2.086 1.414-3.433v-1.615c0-3.567-1.263-6.613-3.787-9.137-2.524-2.523-5.57-3.786-9.137-3.786h-3.23c-.876 0-1.633-.32-2.272-.959-.64-.64-.96-1.396-.96-2.271V3.693c0-.875.32-1.633.96-2.272.64-.639 1.396-.96 2.271-.96h3.23c3.501 0 6.84.683 10.021 2.045 3.18 1.363 5.931 3.206 8.254 5.529 2.322 2.32 4.164 5.072 5.527 8.253A25.176 25.176 0 0184 26.308v35.538c0 2.694-.942 4.98-2.826 6.866-1.885 1.884-4.174 2.826-6.867 2.826H54.922c-2.692 0-4.98-.942-6.865-2.826-1.884-1.885-2.827-4.172-2.827-6.866V42.462c0-2.693.943-4.98 2.828-6.866 1.884-1.884 4.173-2.826 6.865-2.826zM2.825 35.596c1.884-1.884 4.173-2.826 6.866-2.826h11.307c1.346 0 2.491-.471 3.432-1.414.943-.942 1.413-2.086 1.413-3.433v-1.615c0-3.567-1.262-6.613-3.785-9.137-2.523-2.523-5.569-3.786-9.138-3.786H9.69c-.875 0-1.632-.32-2.271-.959-.64-.64-.96-1.396-.96-2.271V3.693c0-.875.32-1.633.96-2.272C8.058.782 8.815.46 9.69.46h3.23c3.502 0 6.841.683 10.023 2.045 3.18 1.363 5.93 3.206 8.252 5.529 2.322 2.32 4.165 5.072 5.528 8.253a25.182 25.182 0 012.045 10.02v35.538c0 2.694-.943 4.98-2.827 6.866-1.884 1.884-4.173 2.826-6.865 2.826H9.692c-2.693 0-4.981-.942-6.865-2.826C.94 66.827 0 64.54 0 61.846V42.462c0-2.693.941-4.98 2.825-6.866z" fill="#000"/></svg>